# Blender v2.83.5 OBJ File: ''
# www.blender.org
mtllib moog_sub_phatty.mtl
o Synth_Body_Cube.014
v -0.400000 -0.200000 -0.050000
v -0.400000 0.200000 -0.050000
v -0.400000 -0.200000 -0.150000
v -0.400000 0.200000 -0.150000
v 0.400000 -0.200000 -0.050000
v 0.400000 0.200000 -0.050000
v 0.400000 -0.200000 -0.150000
v 0.400000 0.200000 -0.150000
v -0.350000 0.075000 -0.055000
v -0.350000 0.225000 -0.055000
v -0.350000 0.075000 -0.065000
v -0.350000 0.225000 -0.065000
v 0.350000 0.075000 -0.055000
v 0.350000 0.225000 -0.055000
v 0.350000 0.075000 -0.065000
v 0.350000 0.225000 -0.065000
v -0.362500 0.090000 -0.050000
v -0.362500 0.210000 -0.050000
v -0.362500 0.090000 -0.060000
v -0.362500 0.210000 -0.060000
v -0.337500 0.090000 -0.050000
v -0.337500 0.210000 -0.050000
v -0.337500 0.090000 -0.060000
v -0.337500 0.210000 -0.060000
v -0.327500 0.090000 -0.050000
v -0.327500 0.210000 -0.050000
v -0.327500 0.090000 -0.060000
v -0.327500 0.210000 -0.060000
v -0.302500 0.090000 -0.050000
v -0.302500 0.210000 -0.050000
v -0.302500 0.090000 -0.060000
v -0.302500 0.210000 -0.060000
v -0.292500 0.090000 -0.050000
v -0.292500 0.210000 -0.050000
v -0.292500 0.090000 -0.060000
v -0.292500 0.210000 -0.060000
v -0.267500 0.090000 -0.050000
v -0.267500 0.210000 -0.050000
v -0.267500 0.090000 -0.060000
v -0.267500 0.210000 -0.060000
v -0.257500 0.090000 -0.050000
v -0.257500 0.210000 -0.050000
v -0.257500 0.090000 -0.060000
v -0.257500 0.210000 -0.060000
v -0.232500 0.090000 -0.050000
v -0.232500 0.210000 -0.050000
v -0.232500 0.090000 -0.060000
v -0.232500 0.210000 -0.060000
v -0.222500 0.090000 -0.050000
v -0.222500 0.210000 -0.050000
v -0.222500 0.090000 -0.060000
v -0.222500 0.210000 -0.060000
v -0.197500 0.090000 -0.050000
v -0.197500 0.210000 -0.050000
v -0.197500 0.090000 -0.060000
v -0.197500 0.210000 -0.060000
v -0.187500 0.090000 -0.050000
v -0.187500 0.210000 -0.050000
v -0.187500 0.090000 -0.060000
v -0.187500 0.210000 -0.060000
v -0.162500 0.090000 -0.050000
v -0.162500 0.210000 -0.050000
v -0.162500 0.090000 -0.060000
v -0.162500 0.210000 -0.060000
v -0.152500 0.090000 -0.050000
v -0.152500 0.210000 -0.050000
v -0.152500 0.090000 -0.060000
v -0.152500 0.210000 -0.060000
v -0.127500 0.090000 -0.050000
v -0.127500 0.210000 -0.050000
v -0.127500 0.090000 -0.060000
v -0.127500 0.210000 -0.060000
v -0.117500 0.090000 -0.050000
v -0.117500 0.210000 -0.050000
v -0.117500 0.090000 -0.060000
v -0.117500 0.210000 -0.060000
v -0.092500 0.090000 -0.050000
v -0.092500 0.210000 -0.050000
v -0.092500 0.090000 -0.060000
v -0.092500 0.210000 -0.060000
v -0.082500 0.090000 -0.050000
v -0.082500 0.210000 -0.050000
v -0.082500 0.090000 -0.060000
v -0.082500 0.210000 -0.060000
v -0.057500 0.090000 -0.050000
v -0.057500 0.210000 -0.050000
v -0.057500 0.090000 -0.060000
v -0.057500 0.210000 -0.060000
v -0.047500 0.090000 -0.050000
v -0.047500 0.210000 -0.050000
v -0.047500 0.090000 -0.060000
v -0.047500 0.210000 -0.060000
v -0.022500 0.090000 -0.050000
v -0.022500 0.210000 -0.050000
v -0.022500 0.090000 -0.060000
v -0.022500 0.210000 -0.060000
v -0.012500 0.090000 -0.050000
v -0.012500 0.210000 -0.050000
v -0.012500 0.090000 -0.060000
v -0.012500 0.210000 -0.060000
v 0.012500 0.090000 -0.050000
v 0.012500 0.210000 -0.050000
v 0.012500 0.090000 -0.060000
v 0.012500 0.210000 -0.060000
v 0.022500 0.090000 -0.050000
v 0.022500 0.210000 -0.050000
v 0.022500 0.090000 -0.060000
v 0.022500 0.210000 -0.060000
v 0.047500 0.090000 -0.050000
v 0.047500 0.210000 -0.050000
v 0.047500 0.090000 -0.060000
v 0.047500 0.210000 -0.060000
v 0.057500 0.090000 -0.050000
v 0.057500 0.210000 -0.050000
v 0.057500 0.090000 -0.060000
v 0.057500 0.210000 -0.060000
v 0.082500 0.090000 -0.050000
v 0.082500 0.210000 -0.050000
v 0.082500 0.090000 -0.060000
v 0.082500 0.210000 -0.060000
v 0.092500 0.090000 -0.050000
v 0.092500 0.210000 -0.050000
v 0.092500 0.090000 -0.060000
v 0.092500 0.210000 -0.060000
v 0.117500 0.090000 -0.050000
v 0.117500 0.210000 -0.050000
v 0.117500 0.090000 -0.060000
v 0.117500 0.210000 -0.060000
v 0.127500 0.090000 -0.050000
v 0.127500 0.210000 -0.050000
v 0.127500 0.090000 -0.060000
v 0.127500 0.210000 -0.060000
v 0.152500 0.090000 -0.050000
v 0.152500 0.210000 -0.050000
v 0.152500 0.090000 -0.060000
v 0.152500 0.210000 -0.060000
v 0.162500 0.090000 -0.050000
v 0.162500 0.210000 -0.050000
v 0.162500 0.090000 -0.060000
v 0.162500 0.210000 -0.060000
v 0.187500 0.090000 -0.050000
v 0.187500 0.210000 -0.050000
v 0.187500 0.090000 -0.060000
v 0.187500 0.210000 -0.060000
v 0.197500 0.090000 -0.050000
v 0.197500 0.210000 -0.050000
v 0.197500 0.090000 -0.060000
v 0.197500 0.210000 -0.060000
v 0.222500 0.090000 -0.050000
v 0.222500 0.210000 -0.050000
v 0.222500 0.090000 -0.060000
v 0.222500 0.210000 -0.060000
v 0.232500 0.090000 -0.050000
v 0.232500 0.210000 -0.050000
v 0.232500 0.090000 -0.060000
v 0.232500 0.210000 -0.060000
v 0.257500 0.090000 -0.050000
v 0.257500 0.210000 -0.050000
v 0.257500 0.090000 -0.060000
v 0.257500 0.210000 -0.060000
v 0.267500 0.090000 -0.050000
v 0.267500 0.210000 -0.050000
v 0.267500 0.090000 -0.060000
v 0.267500 0.210000 -0.060000
v 0.292500 0.090000 -0.050000
v 0.292500 0.210000 -0.050000
v 0.292500 0.090000 -0.060000
v 0.292500 0.210000 -0.060000
v 0.302500 0.090000 -0.050000
v 0.302500 0.210000 -0.050000
v 0.302500 0.090000 -0.060000
v 0.302500 0.210000 -0.060000
v 0.327500 0.090000 -0.050000
v 0.327500 0.210000 -0.050000
v 0.327500 0.090000 -0.060000
v 0.327500 0.210000 -0.060000
v 0.337500 0.090000 -0.050000
v 0.337500 0.210000 -0.050000
v 0.337500 0.090000 -0.060000
v 0.337500 0.210000 -0.060000
v 0.362500 0.090000 -0.050000
v 0.362500 0.210000 -0.050000
v 0.362500 0.090000 -0.060000
v 0.362500 0.210000 -0.060000
v -0.322500 0.110000 -0.057000
v -0.322500 0.190000 -0.057000
v -0.322500 0.110000 -0.069000
v -0.322500 0.190000 -0.069000
v -0.307500 0.110000 -0.057000
v -0.307500 0.190000 -0.057000
v -0.307500 0.110000 -0.069000
v -0.307500 0.190000 -0.069000
v -0.287500 0.110000 -0.057000
v -0.287500 0.190000 -0.057000
v -0.287500 0.110000 -0.069000
v -0.287500 0.190000 -0.069000
v -0.272500 0.110000 -0.057000
v -0.272500 0.190000 -0.057000
v -0.272500 0.110000 -0.069000
v -0.272500 0.190000 -0.069000
v -0.217500 0.110000 -0.057000
v -0.217500 0.190000 -0.057000
v -0.217500 0.110000 -0.069000
v -0.217500 0.190000 -0.069000
v -0.202500 0.110000 -0.057000
v -0.202500 0.190000 -0.057000
v -0.202500 0.110000 -0.069000
v -0.202500 0.190000 -0.069000
v -0.182500 0.110000 -0.057000
v -0.182500 0.190000 -0.057000
v -0.182500 0.110000 -0.069000
v -0.182500 0.190000 -0.069000
v -0.167500 0.110000 -0.057000
v -0.167500 0.190000 -0.057000
v -0.167500 0.110000 -0.069000
v -0.167500 0.190000 -0.069000
v -0.147500 0.110000 -0.057000
v -0.147500 0.190000 -0.057000
v -0.147500 0.110000 -0.069000
v -0.147500 0.190000 -0.069000
v -0.132500 0.110000 -0.057000
v -0.132500 0.190000 -0.057000
v -0.132500 0.110000 -0.069000
v -0.132500 0.190000 -0.069000
v -0.077500 0.110000 -0.057000
v -0.077500 0.190000 -0.057000
v -0.077500 0.110000 -0.069000
v -0.077500 0.190000 -0.069000
v -0.062500 0.110000 -0.057000
v -0.062500 0.190000 -0.057000
v -0.062500 0.110000 -0.069000
v -0.062500 0.190000 -0.069000
v -0.042500 0.110000 -0.057000
v -0.042500 0.190000 -0.057000
v -0.042500 0.110000 -0.069000
v -0.042500 0.190000 -0.069000
v -0.027500 0.110000 -0.057000
v -0.027500 0.190000 -0.057000
v -0.027500 0.110000 -0.069000
v -0.027500 0.190000 -0.069000
v 0.027500 0.110000 -0.057000
v 0.027500 0.190000 -0.057000
v 0.027500 0.110000 -0.069000
v 0.027500 0.190000 -0.069000
v 0.042500 0.110000 -0.057000
v 0.042500 0.190000 -0.057000
v 0.042500 0.110000 -0.069000
v 0.042500 0.190000 -0.069000
v 0.062500 0.110000 -0.057000
v 0.062500 0.190000 -0.057000
v 0.062500 0.110000 -0.069000
v 0.062500 0.190000 -0.069000
v 0.077500 0.110000 -0.057000
v 0.077500 0.190000 -0.057000
v 0.077500 0.110000 -0.069000
v 0.077500 0.190000 -0.069000
v 0.097500 0.110000 -0.057000
v 0.097500 0.190000 -0.057000
v 0.097500 0.110000 -0.069000
v 0.097500 0.190000 -0.069000
v 0.112500 0.110000 -0.057000
v 0.112500 0.190000 -0.057000
v 0.112500 0.110000 -0.069000
v 0.112500 0.190000 -0.069000
v 0.167500 0.110000 -0.057000
v 0.167500 0.190000 -0.057000
v 0.167500 0.110000 -0.069000
v 0.167500 0.190000 -0.069000
v 0.182500 0.110000 -0.057000
v 0.182500 0.190000 -0.057000
v 0.182500 0.110000 -0.069000
v 0.182500 0.190000 -0.069000
v 0.202500 0.110000 -0.057000
v 0.202500 0.190000 -0.057000
v 0.202500 0.110000 -0.069000
v 0.202500 0.190000 -0.069000
v 0.217500 0.110000 -0.057000
v 0.217500 0.190000 -0.057000
v 0.217500 0.110000 -0.069000
v 0.217500 0.190000 -0.069000
v 0.272500 0.110000 -0.057000
v 0.272500 0.190000 -0.057000
v 0.272500 0.110000 -0.069000
v 0.272500 0.190000 -0.069000
v 0.287500 0.110000 -0.057000
v 0.287500 0.190000 -0.057000
v 0.287500 0.110000 -0.069000
v 0.287500 0.190000 -0.069000
v 0.307500 0.110000 -0.057000
v 0.307500 0.190000 -0.057000
v 0.307500 0.110000 -0.069000
v 0.307500 0.190000 -0.069000
v 0.322500 0.110000 -0.057000
v 0.322500 0.190000 -0.057000
v 0.322500 0.110000 -0.069000
v 0.322500 0.190000 -0.069000
v 0.342500 0.110000 -0.057000
v 0.342500 0.190000 -0.057000
v 0.342500 0.110000 -0.069000
v 0.342500 0.190000 -0.069000
v 0.357500 0.110000 -0.057000
v 0.357500 0.190000 -0.057000
v 0.357500 0.110000 -0.069000
v 0.357500 0.190000 -0.069000
v -0.300000 -0.175000 -0.060000
v -0.300000 -0.025000 -0.060000
v -0.300000 -0.175000 -0.140000
v -0.300000 -0.025000 -0.140000
v 0.300000 -0.175000 -0.060000
v 0.300000 -0.025000 -0.060000
v 0.300000 -0.175000 -0.140000
v 0.300000 -0.025000 -0.140000
v -0.250000 -0.088000 -0.150000
v -0.250000 -0.088000 -0.130000
v -0.245408 -0.088913 -0.150000
v -0.245408 -0.088913 -0.130000
v -0.241515 -0.091515 -0.150000
v -0.241515 -0.091515 -0.130000
v -0.238913 -0.095408 -0.150000
v -0.238913 -0.095408 -0.130000
v -0.238000 -0.100000 -0.150000
v -0.238000 -0.100000 -0.130000
v -0.238913 -0.104592 -0.150000
v -0.238913 -0.104592 -0.130000
v -0.241515 -0.108485 -0.150000
v -0.241515 -0.108485 -0.130000
v -0.245408 -0.111087 -0.150000
v -0.245408 -0.111087 -0.130000
v -0.250000 -0.112000 -0.150000
v -0.250000 -0.112000 -0.130000
v -0.254592 -0.111087 -0.150000
v -0.254592 -0.111087 -0.130000
v -0.258485 -0.108485 -0.150000
v -0.258485 -0.108485 -0.130000
v -0.261087 -0.104592 -0.150000
v -0.261087 -0.104592 -0.130000
v -0.262000 -0.100000 -0.150000
v -0.262000 -0.100000 -0.130000
v -0.261087 -0.095408 -0.150000
v -0.261087 -0.095408 -0.130000
v -0.258485 -0.091515 -0.150000
v -0.258485 -0.091515 -0.130000
v -0.254592 -0.088913 -0.150000
v -0.254592 -0.088913 -0.130000
v -0.180000 -0.088000 -0.150000
v -0.180000 -0.088000 -0.130000
v -0.175408 -0.088913 -0.150000
v -0.175408 -0.088913 -0.130000
v -0.171515 -0.091515 -0.150000
v -0.171515 -0.091515 -0.130000
v -0.168913 -0.095408 -0.150000
v -0.168913 -0.095408 -0.130000
v -0.168000 -0.100000 -0.150000
v -0.168000 -0.100000 -0.130000
v -0.168913 -0.104592 -0.150000
v -0.168913 -0.104592 -0.130000
v -0.171515 -0.108485 -0.150000
v -0.171515 -0.108485 -0.130000
v -0.175408 -0.111087 -0.150000
v -0.175408 -0.111087 -0.130000
v -0.180000 -0.112000 -0.150000
v -0.180000 -0.112000 -0.130000
v -0.184592 -0.111087 -0.150000
v -0.184592 -0.111087 -0.130000
v -0.188485 -0.108485 -0.150000
v -0.188485 -0.108485 -0.130000
v -0.191087 -0.104592 -0.150000
v -0.191087 -0.104592 -0.130000
v -0.192000 -0.100000 -0.150000
v -0.192000 -0.100000 -0.130000
v -0.191087 -0.095408 -0.150000
v -0.191087 -0.095408 -0.130000
v -0.188485 -0.091515 -0.150000
v -0.188485 -0.091515 -0.130000
v -0.184592 -0.088913 -0.150000
v -0.184592 -0.088913 -0.130000
v -0.110000 -0.088000 -0.150000
v -0.110000 -0.088000 -0.130000
v -0.105408 -0.088913 -0.150000
v -0.105408 -0.088913 -0.130000
v -0.101515 -0.091515 -0.150000
v -0.101515 -0.091515 -0.130000
v -0.098913 -0.095408 -0.150000
v -0.098913 -0.095408 -0.130000
v -0.098000 -0.100000 -0.150000
v -0.098000 -0.100000 -0.130000
v -0.098913 -0.104592 -0.150000
v -0.098913 -0.104592 -0.130000
v -0.101515 -0.108485 -0.150000
v -0.101515 -0.108485 -0.130000
v -0.105408 -0.111087 -0.150000
v -0.105408 -0.111087 -0.130000
v -0.110000 -0.112000 -0.150000
v -0.110000 -0.112000 -0.130000
v -0.114592 -0.111087 -0.150000
v -0.114592 -0.111087 -0.130000
v -0.118485 -0.108485 -0.150000
v -0.118485 -0.108485 -0.130000
v -0.121087 -0.104592 -0.150000
v -0.121087 -0.104592 -0.130000
v -0.122000 -0.100000 -0.150000
v -0.122000 -0.100000 -0.130000
v -0.121087 -0.095408 -0.150000
v -0.121087 -0.095408 -0.130000
v -0.118485 -0.091515 -0.150000
v -0.118485 -0.091515 -0.130000
v -0.114592 -0.088913 -0.150000
v -0.114592 -0.088913 -0.130000
v -0.040000 -0.088000 -0.150000
v -0.040000 -0.088000 -0.130000
v -0.035408 -0.088913 -0.150000
v -0.035408 -0.088913 -0.130000
v -0.031515 -0.091515 -0.150000
v -0.031515 -0.091515 -0.130000
v -0.028913 -0.095408 -0.150000
v -0.028913 -0.095408 -0.130000
v -0.028000 -0.100000 -0.150000
v -0.028000 -0.100000 -0.130000
v -0.028913 -0.104592 -0.150000
v -0.028913 -0.104592 -0.130000
v -0.031515 -0.108485 -0.150000
v -0.031515 -0.108485 -0.130000
v -0.035408 -0.111087 -0.150000
v -0.035408 -0.111087 -0.130000
v -0.040000 -0.112000 -0.150000
v -0.040000 -0.112000 -0.130000
v -0.044592 -0.111087 -0.150000
v -0.044592 -0.111087 -0.130000
v -0.048485 -0.108485 -0.150000
v -0.048485 -0.108485 -0.130000
v -0.051087 -0.104592 -0.150000
v -0.051087 -0.104592 -0.130000
v -0.052000 -0.100000 -0.150000
v -0.052000 -0.100000 -0.130000
v -0.051087 -0.095408 -0.150000
v -0.051087 -0.095408 -0.130000
v -0.048485 -0.091515 -0.150000
v -0.048485 -0.091515 -0.130000
v -0.044592 -0.088913 -0.150000
v -0.044592 -0.088913 -0.130000
v 0.030000 -0.088000 -0.150000
v 0.030000 -0.088000 -0.130000
v 0.034592 -0.088913 -0.150000
v 0.034592 -0.088913 -0.130000
v 0.038485 -0.091515 -0.150000
v 0.038485 -0.091515 -0.130000
v 0.041087 -0.095408 -0.150000
v 0.041087 -0.095408 -0.130000
v 0.042000 -0.100000 -0.150000
v 0.042000 -0.100000 -0.130000
v 0.041087 -0.104592 -0.150000
v 0.041087 -0.104592 -0.130000
v 0.038485 -0.108485 -0.150000
v 0.038485 -0.108485 -0.130000
v 0.034592 -0.111087 -0.150000
v 0.034592 -0.111087 -0.130000
v 0.030000 -0.112000 -0.150000
v 0.030000 -0.112000 -0.130000
v 0.025408 -0.111087 -0.150000
v 0.025408 -0.111087 -0.130000
v 0.021515 -0.108485 -0.150000
v 0.021515 -0.108485 -0.130000
v 0.018913 -0.104592 -0.150000
v 0.018913 -0.104592 -0.130000
v 0.018000 -0.100000 -0.150000
v 0.018000 -0.100000 -0.130000
v 0.018913 -0.095408 -0.150000
v 0.018913 -0.095408 -0.130000
v 0.021515 -0.091515 -0.150000
v 0.021515 -0.091515 -0.130000
v 0.025408 -0.088913 -0.150000
v 0.025408 -0.088913 -0.130000
v 0.100000 -0.088000 -0.150000
v 0.100000 -0.088000 -0.130000
v 0.104592 -0.088913 -0.150000
v 0.104592 -0.088913 -0.130000
v 0.108485 -0.091515 -0.150000
v 0.108485 -0.091515 -0.130000
v 0.111087 -0.095408 -0.150000
v 0.111087 -0.095408 -0.130000
v 0.112000 -0.100000 -0.150000
v 0.112000 -0.100000 -0.130000
v 0.111087 -0.104592 -0.150000
v 0.111087 -0.104592 -0.130000
v 0.108485 -0.108485 -0.150000
v 0.108485 -0.108485 -0.130000
v 0.104592 -0.111087 -0.150000
v 0.104592 -0.111087 -0.130000
v 0.100000 -0.112000 -0.150000
v 0.100000 -0.112000 -0.130000
v 0.095408 -0.111087 -0.150000
v 0.095408 -0.111087 -0.130000
v 0.091515 -0.108485 -0.150000
v 0.091515 -0.108485 -0.130000
v 0.088913 -0.104592 -0.150000
v 0.088913 -0.104592 -0.130000
v 0.088000 -0.100000 -0.150000
v 0.088000 -0.100000 -0.130000
v 0.088913 -0.095408 -0.150000
v 0.088913 -0.095408 -0.130000
v 0.091515 -0.091515 -0.150000
v 0.091515 -0.091515 -0.130000
v 0.095408 -0.088913 -0.150000
v 0.095408 -0.088913 -0.130000
v 0.170000 -0.088000 -0.150000
v 0.170000 -0.088000 -0.130000
v 0.174592 -0.088913 -0.150000
v 0.174592 -0.088913 -0.130000
v 0.178485 -0.091515 -0.150000
v 0.178485 -0.091515 -0.130000
v 0.181087 -0.095408 -0.150000
v 0.181087 -0.095408 -0.130000
v 0.182000 -0.100000 -0.150000
v 0.182000 -0.100000 -0.130000
v 0.181087 -0.104592 -0.150000
v 0.181087 -0.104592 -0.130000
v 0.178485 -0.108485 -0.150000
v 0.178485 -0.108485 -0.130000
v 0.174592 -0.111087 -0.150000
v 0.174592 -0.111087 -0.130000
v 0.170000 -0.112000 -0.150000
v 0.170000 -0.112000 -0.130000
v 0.165408 -0.111087 -0.150000
v 0.165408 -0.111087 -0.130000
v 0.161515 -0.108485 -0.150000
v 0.161515 -0.108485 -0.130000
v 0.158913 -0.104592 -0.150000
v 0.158913 -0.104592 -0.130000
v 0.158000 -0.100000 -0.150000
v 0.158000 -0.100000 -0.130000
v 0.158913 -0.095408 -0.150000
v 0.158913 -0.095408 -0.130000
v 0.161515 -0.091515 -0.150000
v 0.161515 -0.091515 -0.130000
v 0.165408 -0.088913 -0.150000
v 0.165408 -0.088913 -0.130000
v 0.240000 -0.088000 -0.150000
v 0.240000 -0.088000 -0.130000
v 0.244592 -0.088913 -0.150000
v 0.244592 -0.088913 -0.130000
v 0.248485 -0.091515 -0.150000
v 0.248485 -0.091515 -0.130000
v 0.251087 -0.095408 -0.150000
v 0.251087 -0.095408 -0.130000
v 0.252000 -0.100000 -0.150000
v 0.252000 -0.100000 -0.130000
v 0.251087 -0.104592 -0.150000
v 0.251087 -0.104592 -0.130000
v 0.248485 -0.108485 -0.150000
v 0.248485 -0.108485 -0.130000
v 0.244592 -0.111087 -0.150000
v 0.244592 -0.111087 -0.130000
v 0.240000 -0.112000 -0.150000
v 0.240000 -0.112000 -0.130000
v 0.235408 -0.111087 -0.150000
v 0.235408 -0.111087 -0.130000
v 0.231515 -0.108485 -0.150000
v 0.231515 -0.108485 -0.130000
v 0.228913 -0.104592 -0.150000
v 0.228913 -0.104592 -0.130000
v 0.228000 -0.100000 -0.150000
v 0.228000 -0.100000 -0.130000
v 0.228913 -0.095408 -0.150000
v 0.228913 -0.095408 -0.130000
v 0.231515 -0.091515 -0.150000
v 0.231515 -0.091515 -0.130000
v 0.235408 -0.088913 -0.150000
v 0.235408 -0.088913 -0.130000
v -0.250000 -0.088000 -0.190000
v -0.250000 -0.088000 -0.170000
v -0.245408 -0.088913 -0.190000
v -0.245408 -0.088913 -0.170000
v -0.241515 -0.091515 -0.190000
v -0.241515 -0.091515 -0.170000
v -0.238913 -0.095408 -0.190000
v -0.238913 -0.095408 -0.170000
v -0.238000 -0.100000 -0.190000
v -0.238000 -0.100000 -0.170000
v -0.238913 -0.104592 -0.190000
v -0.238913 -0.104592 -0.170000
v -0.241515 -0.108485 -0.190000
v -0.241515 -0.108485 -0.170000
v -0.245408 -0.111087 -0.190000
v -0.245408 -0.111087 -0.170000
v -0.250000 -0.112000 -0.190000
v -0.250000 -0.112000 -0.170000
v -0.254592 -0.111087 -0.190000
v -0.254592 -0.111087 -0.170000
v -0.258485 -0.108485 -0.190000
v -0.258485 -0.108485 -0.170000
v -0.261087 -0.104592 -0.190000
v -0.261087 -0.104592 -0.170000
v -0.262000 -0.100000 -0.190000
v -0.262000 -0.100000 -0.170000
v -0.261087 -0.095408 -0.190000
v -0.261087 -0.095408 -0.170000
v -0.258485 -0.091515 -0.190000
v -0.258485 -0.091515 -0.170000
v -0.254592 -0.088913 -0.190000
v -0.254592 -0.088913 -0.170000
v -0.180000 -0.088000 -0.190000
v -0.180000 -0.088000 -0.170000
v -0.175408 -0.088913 -0.190000
v -0.175408 -0.088913 -0.170000
v -0.171515 -0.091515 -0.190000
v -0.171515 -0.091515 -0.170000
v -0.168913 -0.095408 -0.190000
v -0.168913 -0.095408 -0.170000
v -0.168000 -0.100000 -0.190000
v -0.168000 -0.100000 -0.170000
v -0.168913 -0.104592 -0.190000
v -0.168913 -0.104592 -0.170000
v -0.171515 -0.108485 -0.190000
v -0.171515 -0.108485 -0.170000
v -0.175408 -0.111087 -0.190000
v -0.175408 -0.111087 -0.170000
v -0.180000 -0.112000 -0.190000
v -0.180000 -0.112000 -0.170000
v -0.184592 -0.111087 -0.190000
v -0.184592 -0.111087 -0.170000
v -0.188485 -0.108485 -0.190000
v -0.188485 -0.108485 -0.170000
v -0.191087 -0.104592 -0.190000
v -0.191087 -0.104592 -0.170000
v -0.192000 -0.100000 -0.190000
v -0.192000 -0.100000 -0.170000
v -0.191087 -0.095408 -0.190000
v -0.191087 -0.095408 -0.170000
v -0.188485 -0.091515 -0.190000
v -0.188485 -0.091515 -0.170000
v -0.184592 -0.088913 -0.190000
v -0.184592 -0.088913 -0.170000
v -0.110000 -0.088000 -0.190000
v -0.110000 -0.088000 -0.170000
v -0.105408 -0.088913 -0.190000
v -0.105408 -0.088913 -0.170000
v -0.101515 -0.091515 -0.190000
v -0.101515 -0.091515 -0.170000
v -0.098913 -0.095408 -0.190000
v -0.098913 -0.095408 -0.170000
v -0.098000 -0.100000 -0.190000
v -0.098000 -0.100000 -0.170000
v -0.098913 -0.104592 -0.190000
v -0.098913 -0.104592 -0.170000
v -0.101515 -0.108485 -0.190000
v -0.101515 -0.108485 -0.170000
v -0.105408 -0.111087 -0.190000
v -0.105408 -0.111087 -0.170000
v -0.110000 -0.112000 -0.190000
v -0.110000 -0.112000 -0.170000
v -0.114592 -0.111087 -0.190000
v -0.114592 -0.111087 -0.170000
v -0.118485 -0.108485 -0.190000
v -0.118485 -0.108485 -0.170000
v -0.121087 -0.104592 -0.190000
v -0.121087 -0.104592 -0.170000
v -0.122000 -0.100000 -0.190000
v -0.122000 -0.100000 -0.170000
v -0.121087 -0.095408 -0.190000
v -0.121087 -0.095408 -0.170000
v -0.118485 -0.091515 -0.190000
v -0.118485 -0.091515 -0.170000
v -0.114592 -0.088913 -0.190000
v -0.114592 -0.088913 -0.170000
v -0.040000 -0.088000 -0.190000
v -0.040000 -0.088000 -0.170000
v -0.035408 -0.088913 -0.190000
v -0.035408 -0.088913 -0.170000
v -0.031515 -0.091515 -0.190000
v -0.031515 -0.091515 -0.170000
v -0.028913 -0.095408 -0.190000
v -0.028913 -0.095408 -0.170000
v -0.028000 -0.100000 -0.190000
v -0.028000 -0.100000 -0.170000
v -0.028913 -0.104592 -0.190000
v -0.028913 -0.104592 -0.170000
v -0.031515 -0.108485 -0.190000
v -0.031515 -0.108485 -0.170000
v -0.035408 -0.111087 -0.190000
v -0.035408 -0.111087 -0.170000
v -0.040000 -0.112000 -0.190000
v -0.040000 -0.112000 -0.170000
v -0.044592 -0.111087 -0.190000
v -0.044592 -0.111087 -0.170000
v -0.048485 -0.108485 -0.190000
v -0.048485 -0.108485 -0.170000
v -0.051087 -0.104592 -0.190000
v -0.051087 -0.104592 -0.170000
v -0.052000 -0.100000 -0.190000
v -0.052000 -0.100000 -0.170000
v -0.051087 -0.095408 -0.190000
v -0.051087 -0.095408 -0.170000
v -0.048485 -0.091515 -0.190000
v -0.048485 -0.091515 -0.170000
v -0.044592 -0.088913 -0.190000
v -0.044592 -0.088913 -0.170000
v 0.030000 -0.088000 -0.190000
v 0.030000 -0.088000 -0.170000
v 0.034592 -0.088913 -0.190000
v 0.034592 -0.088913 -0.170000
v 0.038485 -0.091515 -0.190000
v 0.038485 -0.091515 -0.170000
v 0.041087 -0.095408 -0.190000
v 0.041087 -0.095408 -0.170000
v 0.042000 -0.100000 -0.190000
v 0.042000 -0.100000 -0.170000
v 0.041087 -0.104592 -0.190000
v 0.041087 -0.104592 -0.170000
v 0.038485 -0.108485 -0.190000
v 0.038485 -0.108485 -0.170000
v 0.034592 -0.111087 -0.190000
v 0.034592 -0.111087 -0.170000
v 0.030000 -0.112000 -0.190000
v 0.030000 -0.112000 -0.170000
v 0.025408 -0.111087 -0.190000
v 0.025408 -0.111087 -0.170000
v 0.021515 -0.108485 -0.190000
v 0.021515 -0.108485 -0.170000
v 0.018913 -0.104592 -0.190000
v 0.018913 -0.104592 -0.170000
v 0.018000 -0.100000 -0.190000
v 0.018000 -0.100000 -0.170000
v 0.018913 -0.095408 -0.190000
v 0.018913 -0.095408 -0.170000
v 0.021515 -0.091515 -0.190000
v 0.021515 -0.091515 -0.170000
v 0.025408 -0.088913 -0.190000
v 0.025408 -0.088913 -0.170000
v 0.100000 -0.088000 -0.190000
v 0.100000 -0.088000 -0.170000
v 0.104592 -0.088913 -0.190000
v 0.104592 -0.088913 -0.170000
v 0.108485 -0.091515 -0.190000
v 0.108485 -0.091515 -0.170000
v 0.111087 -0.095408 -0.190000
v 0.111087 -0.095408 -0.170000
v 0.112000 -0.100000 -0.190000
v 0.112000 -0.100000 -0.170000
v 0.111087 -0.104592 -0.190000
v 0.111087 -0.104592 -0.170000
v 0.108485 -0.108485 -0.190000
v 0.108485 -0.108485 -0.170000
v 0.104592 -0.111087 -0.190000
v 0.104592 -0.111087 -0.170000
v 0.100000 -0.112000 -0.190000
v 0.100000 -0.112000 -0.170000
v 0.095408 -0.111087 -0.190000
v 0.095408 -0.111087 -0.170000
v 0.091515 -0.108485 -0.190000
v 0.091515 -0.108485 -0.170000
v 0.088913 -0.104592 -0.190000
v 0.088913 -0.104592 -0.170000
v 0.088000 -0.100000 -0.190000
v 0.088000 -0.100000 -0.170000
v 0.088913 -0.095408 -0.190000
v 0.088913 -0.095408 -0.170000
v 0.091515 -0.091515 -0.190000
v 0.091515 -0.091515 -0.170000
v 0.095408 -0.088913 -0.190000
v 0.095408 -0.088913 -0.170000
v 0.170000 -0.088000 -0.190000
v 0.170000 -0.088000 -0.170000
v 0.174592 -0.088913 -0.190000
v 0.174592 -0.088913 -0.170000
v 0.178485 -0.091515 -0.190000
v 0.178485 -0.091515 -0.170000
v 0.181087 -0.095408 -0.190000
v 0.181087 -0.095408 -0.170000
v 0.182000 -0.100000 -0.190000
v 0.182000 -0.100000 -0.170000
v 0.181087 -0.104592 -0.190000
v 0.181087 -0.104592 -0.170000
v 0.178485 -0.108485 -0.190000
v 0.178485 -0.108485 -0.170000
v 0.174592 -0.111087 -0.190000
v 0.174592 -0.111087 -0.170000
v 0.170000 -0.112000 -0.190000
v 0.170000 -0.112000 -0.170000
v 0.165408 -0.111087 -0.190000
v 0.165408 -0.111087 -0.170000
v 0.161515 -0.108485 -0.190000
v 0.161515 -0.108485 -0.170000
v 0.158913 -0.104592 -0.190000
v 0.158913 -0.104592 -0.170000
v 0.158000 -0.100000 -0.190000
v 0.158000 -0.100000 -0.170000
v 0.158913 -0.095408 -0.190000
v 0.158913 -0.095408 -0.170000
v 0.161515 -0.091515 -0.190000
v 0.161515 -0.091515 -0.170000
v 0.165408 -0.088913 -0.190000
v 0.165408 -0.088913 -0.170000
v 0.240000 -0.088000 -0.190000
v 0.240000 -0.088000 -0.170000
v 0.244592 -0.088913 -0.190000
v 0.244592 -0.088913 -0.170000
v 0.248485 -0.091515 -0.190000
v 0.248485 -0.091515 -0.170000
v 0.251087 -0.095408 -0.190000
v 0.251087 -0.095408 -0.170000
v 0.252000 -0.100000 -0.190000
v 0.252000 -0.100000 -0.170000
v 0.251087 -0.104592 -0.190000
v 0.251087 -0.104592 -0.170000
v 0.248485 -0.108485 -0.190000
v 0.248485 -0.108485 -0.170000
v 0.244592 -0.111087 -0.190000
v 0.244592 -0.111087 -0.170000
v 0.240000 -0.112000 -0.190000
v 0.240000 -0.112000 -0.170000
v 0.235408 -0.111087 -0.190000
v 0.235408 -0.111087 -0.170000
v 0.231515 -0.108485 -0.190000
v 0.231515 -0.108485 -0.170000
v 0.228913 -0.104592 -0.190000
v 0.228913 -0.104592 -0.170000
v 0.228000 -0.100000 -0.190000
v 0.228000 -0.100000 -0.170000
v 0.228913 -0.095408 -0.190000
v 0.228913 -0.095408 -0.170000
v 0.231515 -0.091515 -0.190000
v 0.231515 -0.091515 -0.170000
v 0.235408 -0.088913 -0.190000
v 0.235408 -0.088913 -0.170000
v 0.150000 -0.100500 -0.115000
v 0.150000 -0.099500 -0.115000
v 0.150000 -0.100500 -0.165000
v 0.150000 -0.099500 -0.165000
v 0.350000 -0.100500 -0.115000
v 0.350000 -0.099500 -0.115000
v 0.350000 -0.100500 -0.165000
v 0.350000 -0.099500 -0.165000
vt 0.375000 0.000000
vt 0.625000 0.000000
vt 0.625000 0.250000
vt 0.375000 0.250000
vt 0.625000 0.500000
vt 0.375000 0.500000
vt 0.625000 0.750000
vt 0.375000 0.750000
vt 0.625000 1.000000
vt 0.375000 1.000000
vt 0.125000 0.500000
vt 0.125000 0.750000
vt 0.875000 0.500000
vt 0.875000 0.750000
vt 0.375000 0.000000
vt 0.625000 0.000000
vt 0.625000 0.250000
vt 0.375000 0.250000
vt 0.625000 0.500000
vt 0.375000 0.500000
vt 0.625000 0.750000
vt 0.375000 0.750000
vt 0.625000 1.000000
vt 0.375000 1.000000
vt 0.125000 0.500000
vt 0.125000 0.750000
vt 0.875000 0.500000
vt 0.875000 0.750000
vt 0.375000 0.000000
vt 0.625000 0.000000
vt 0.625000 0.250000
vt 0.375000 0.250000
vt 0.625000 0.500000
vt 0.375000 0.500000
vt 0.625000 0.750000
vt 0.375000 0.750000
vt 0.625000 1.000000
vt 0.375000 1.000000
vt 0.125000 0.500000
vt 0.125000 0.750000
vt 0.875000 0.500000
vt 0.875000 0.750000
vt 0.375000 0.000000
vt 0.625000 0.000000
vt 0.625000 0.250000
vt 0.375000 0.250000
vt 0.625000 0.500000
vt 0.375000 0.500000
vt 0.625000 0.750000
vt 0.375000 0.750000
vt 0.625000 1.000000
vt 0.375000 1.000000
vt 0.125000 0.500000
vt 0.125000 0.750000
vt 0.875000 0.500000
vt 0.875000 0.750000
vt 0.375000 0.000000
vt 0.625000 0.000000
vt 0.625000 0.250000
vt 0.375000 0.250000
vt 0.625000 0.500000
vt 0.375000 0.500000
vt 0.625000 0.750000
vt 0.375000 0.750000
vt 0.625000 1.000000
vt 0.375000 1.000000
vt 0.125000 0.500000
vt 0.125000 0.750000
vt 0.875000 0.500000
vt 0.875000 0.750000
vt 0.375000 0.000000
vt 0.625000 0.000000
vt 0.625000 0.250000
vt 0.375000 0.250000
vt 0.625000 0.500000
vt 0.375000 0.500000
vt 0.625000 0.750000
vt 0.375000 0.750000
vt 0.625000 1.000000
vt 0.375000 1.000000
vt 0.125000 0.500000
vt 0.125000 0.750000
vt 0.875000 0.500000
vt 0.875000 0.750000
vt 0.375000 0.000000
vt 0.625000 0.000000
vt 0.625000 0.250000
vt 0.375000 0.250000
vt 0.625000 0.500000
vt 0.375000 0.500000
vt 0.625000 0.750000
vt 0.375000 0.750000
vt 0.625000 1.000000
vt 0.375000 1.000000
vt 0.125000 0.500000
vt 0.125000 0.750000
vt 0.875000 0.500000
vt 0.875000 0.750000
vt 0.375000 0.000000
vt 0.625000 0.000000
vt 0.625000 0.250000
vt 0.375000 0.250000
vt 0.625000 0.500000
vt 0.375000 0.500000
vt 0.625000 0.750000
vt 0.375000 0.750000
vt 0.625000 1.000000
vt 0.375000 1.000000
vt 0.125000 0.500000
vt 0.125000 0.750000
vt 0.875000 0.500000
vt 0.875000 0.750000
vt 0.375000 0.000000
vt 0.625000 0.000000
vt 0.625000 0.250000
vt 0.375000 0.250000
vt 0.625000 0.500000
vt 0.375000 0.500000
vt 0.625000 0.750000
vt 0.375000 0.750000
vt 0.625000 1.000000
vt 0.375000 1.000000
vt 0.125000 0.500000
vt 0.125000 0.750000
vt 0.875000 0.500000
vt 0.875000 0.750000
vt 0.375000 0.000000
vt 0.625000 0.000000
vt 0.625000 0.250000
vt 0.375000 0.250000
vt 0.625000 0.500000
vt 0.375000 0.500000
vt 0.625000 0.750000
vt 0.375000 0.750000
vt 0.625000 1.000000
vt 0.375000 1.000000
vt 0.125000 0.500000
vt 0.125000 0.750000
vt 0.875000 0.500000
vt 0.875000 0.750000
vt 0.375000 0.000000
vt 0.625000 0.000000
vt 0.625000 0.250000
vt 0.375000 0.250000
vt 0.625000 0.500000
vt 0.375000 0.500000
vt 0.625000 0.750000
vt 0.375000 0.750000
vt 0.625000 1.000000
vt 0.375000 1.000000
vt 0.125000 0.500000
vt 0.125000 0.750000
vt 0.875000 0.500000
vt 0.875000 0.750000
vt 0.375000 0.000000
vt 0.625000 0.000000
vt 0.625000 0.250000
vt 0.375000 0.250000
vt 0.625000 0.500000
vt 0.375000 0.500000
vt 0.625000 0.750000
vt 0.375000 0.750000
vt 0.625000 1.000000
vt 0.375000 1.000000
vt 0.125000 0.500000
vt 0.125000 0.750000
vt 0.875000 0.500000
vt 0.875000 0.750000
vt 0.375000 0.000000
vt 0.625000 0.000000
vt 0.625000 0.250000
vt 0.375000 0.250000
vt 0.625000 0.500000
vt 0.375000 0.500000
vt 0.625000 0.750000
vt 0.375000 0.750000
vt 0.625000 1.000000
vt 0.375000 1.000000
vt 0.125000 0.500000
vt 0.125000 0.750000
vt 0.875000 0.500000
vt 0.875000 0.750000
vt 0.375000 0.000000
vt 0.625000 0.000000
vt 0.625000 0.250000
vt 0.375000 0.250000
vt 0.625000 0.500000
vt 0.375000 0.500000
vt 0.625000 0.750000
vt 0.375000 0.750000
vt 0.625000 1.000000
vt 0.375000 1.000000
vt 0.125000 0.500000
vt 0.125000 0.750000
vt 0.875000 0.500000
vt 0.875000 0.750000
vt 0.375000 0.000000
vt 0.625000 0.000000
vt 0.625000 0.250000
vt 0.375000 0.250000
vt 0.625000 0.500000
vt 0.375000 0.500000
vt 0.625000 0.750000
vt 0.375000 0.750000
vt 0.625000 1.000000
vt 0.375000 1.000000
vt 0.125000 0.500000
vt 0.125000 0.750000
vt 0.875000 0.500000
vt 0.875000 0.750000
vt 0.375000 0.000000
vt 0.625000 0.000000
vt 0.625000 0.250000
vt 0.375000 0.250000
vt 0.625000 0.500000
vt 0.375000 0.500000
vt 0.625000 0.750000
vt 0.375000 0.750000
vt 0.625000 1.000000
vt 0.375000 1.000000
vt 0.125000 0.500000
vt 0.125000 0.750000
vt 0.875000 0.500000
vt 0.875000 0.750000
vt 0.375000 0.000000
vt 0.625000 0.000000
vt 0.625000 0.250000
vt 0.375000 0.250000
vt 0.625000 0.500000
vt 0.375000 0.500000
vt 0.625000 0.750000
vt 0.375000 0.750000
vt 0.625000 1.000000
vt 0.375000 1.000000
vt 0.125000 0.500000
vt 0.125000 0.750000
vt 0.875000 0.500000
vt 0.875000 0.750000
vt 0.375000 0.000000
vt 0.625000 0.000000
vt 0.625000 0.250000
vt 0.375000 0.250000
vt 0.625000 0.500000
vt 0.375000 0.500000
vt 0.625000 0.750000
vt 0.375000 0.750000
vt 0.625000 1.000000
vt 0.375000 1.000000
vt 0.125000 0.500000
vt 0.125000 0.750000
vt 0.875000 0.500000
vt 0.875000 0.750000
vt 0.375000 0.000000
vt 0.625000 0.000000
vt 0.625000 0.250000
vt 0.375000 0.250000
vt 0.625000 0.500000
vt 0.375000 0.500000
vt 0.625000 0.750000
vt 0.375000 0.750000
vt 0.625000 1.000000
vt 0.375000 1.000000
vt 0.125000 0.500000
vt 0.125000 0.750000
vt 0.875000 0.500000
vt 0.875000 0.750000
vt 0.375000 0.000000
vt 0.625000 0.000000
vt 0.625000 0.250000
vt 0.375000 0.250000
vt 0.625000 0.500000
vt 0.375000 0.500000
vt 0.625000 0.750000
vt 0.375000 0.750000
vt 0.625000 1.000000
vt 0.375000 1.000000
vt 0.125000 0.500000
vt 0.125000 0.750000
vt 0.875000 0.500000
vt 0.875000 0.750000
vt 0.375000 0.000000
vt 0.625000 0.000000
vt 0.625000 0.250000
vt 0.375000 0.250000
vt 0.625000 0.500000
vt 0.375000 0.500000
vt 0.625000 0.750000
vt 0.375000 0.750000
vt 0.625000 1.000000
vt 0.375000 1.000000
vt 0.125000 0.500000
vt 0.125000 0.750000
vt 0.875000 0.500000
vt 0.875000 0.750000
vt 0.375000 0.000000
vt 0.625000 0.000000
vt 0.625000 0.250000
vt 0.375000 0.250000
vt 0.625000 0.500000
vt 0.375000 0.500000
vt 0.625000 0.750000
vt 0.375000 0.750000
vt 0.625000 1.000000
vt 0.375000 1.000000
vt 0.125000 0.500000
vt 0.125000 0.750000
vt 0.875000 0.500000
vt 0.875000 0.750000
vt 0.375000 0.000000
vt 0.625000 0.000000
vt 0.625000 0.250000
vt 0.375000 0.250000
vt 0.625000 0.500000
vt 0.375000 0.500000
vt 0.625000 0.750000
vt 0.375000 0.750000
vt 0.625000 1.000000
vt 0.375000 1.000000
vt 0.125000 0.500000
vt 0.125000 0.750000
vt 0.875000 0.500000
vt 0.875000 0.750000
vt 0.375000 0.000000
vt 0.625000 0.000000
vt 0.625000 0.250000
vt 0.375000 0.250000
vt 0.625000 0.500000
vt 0.375000 0.500000
vt 0.625000 0.750000
vt 0.375000 0.750000
vt 0.625000 1.000000
vt 0.375000 1.000000
vt 0.125000 0.500000
vt 0.125000 0.750000
vt 0.875000 0.500000
vt 0.875000 0.750000
vt 0.375000 0.000000
vt 0.625000 0.000000
vt 0.625000 0.250000
vt 0.375000 0.250000
vt 0.625000 0.500000
vt 0.375000 0.500000
vt 0.625000 0.750000
vt 0.375000 0.750000
vt 0.625000 1.000000
vt 0.375000 1.000000
vt 0.125000 0.500000
vt 0.125000 0.750000
vt 0.875000 0.500000
vt 0.875000 0.750000
vt 0.375000 0.000000
vt 0.625000 0.000000
vt 0.625000 0.250000
vt 0.375000 0.250000
vt 0.625000 0.500000
vt 0.375000 0.500000
vt 0.625000 0.750000
vt 0.375000 0.750000
vt 0.625000 1.000000
vt 0.375000 1.000000
vt 0.125000 0.500000
vt 0.125000 0.750000
vt 0.875000 0.500000
vt 0.875000 0.750000
vt 0.375000 0.000000
vt 0.625000 0.000000
vt 0.625000 0.250000
vt 0.375000 0.250000
vt 0.625000 0.500000
vt 0.375000 0.500000
vt 0.625000 0.750000
vt 0.375000 0.750000
vt 0.625000 1.000000
vt 0.375000 1.000000
vt 0.125000 0.500000
vt 0.125000 0.750000
vt 0.875000 0.500000
vt 0.875000 0.750000
vt 0.375000 0.000000
vt 0.625000 0.000000
vt 0.625000 0.250000
vt 0.375000 0.250000
vt 0.625000 0.500000
vt 0.375000 0.500000
vt 0.625000 0.750000
vt 0.375000 0.750000
vt 0.625000 1.000000
vt 0.375000 1.000000
vt 0.125000 0.500000
vt 0.125000 0.750000
vt 0.875000 0.500000
vt 0.875000 0.750000
vt 0.375000 0.000000
vt 0.625000 0.000000
vt 0.625000 0.250000
vt 0.375000 0.250000
vt 0.625000 0.500000
vt 0.375000 0.500000
vt 0.625000 0.750000
vt 0.375000 0.750000
vt 0.625000 1.000000
vt 0.375000 1.000000
vt 0.125000 0.500000
vt 0.125000 0.750000
vt 0.875000 0.500000
vt 0.875000 0.750000
vt 0.375000 0.000000
vt 0.625000 0.000000
vt 0.625000 0.250000
vt 0.375000 0.250000
vt 0.625000 0.500000
vt 0.375000 0.500000
vt 0.625000 0.750000
vt 0.375000 0.750000
vt 0.625000 1.000000
vt 0.375000 1.000000
vt 0.125000 0.500000
vt 0.125000 0.750000
vt 0.875000 0.500000
vt 0.875000 0.750000
vt 0.375000 0.000000
vt 0.625000 0.000000
vt 0.625000 0.250000
vt 0.375000 0.250000
vt 0.625000 0.500000
vt 0.375000 0.500000
vt 0.625000 0.750000
vt 0.375000 0.750000
vt 0.625000 1.000000
vt 0.375000 1.000000
vt 0.125000 0.500000
vt 0.125000 0.750000
vt 0.875000 0.500000
vt 0.875000 0.750000
vt 0.375000 0.000000
vt 0.625000 0.000000
vt 0.625000 0.250000
vt 0.375000 0.250000
vt 0.625000 0.500000
vt 0.375000 0.500000
vt 0.625000 0.750000
vt 0.375000 0.750000
vt 0.625000 1.000000
vt 0.375000 1.000000
vt 0.125000 0.500000
vt 0.125000 0.750000
vt 0.875000 0.500000
vt 0.875000 0.750000
vt 0.375000 0.000000
vt 0.625000 0.000000
vt 0.625000 0.250000
vt 0.375000 0.250000
vt 0.625000 0.500000
vt 0.375000 0.500000
vt 0.625000 0.750000
vt 0.375000 0.750000
vt 0.625000 1.000000
vt 0.375000 1.000000
vt 0.125000 0.500000
vt 0.125000 0.750000
vt 0.875000 0.500000
vt 0.875000 0.750000
vt 0.375000 0.000000
vt 0.625000 0.000000
vt 0.625000 0.250000
vt 0.375000 0.250000
vt 0.625000 0.500000
vt 0.375000 0.500000
vt 0.625000 0.750000
vt 0.375000 0.750000
vt 0.625000 1.000000
vt 0.375000 1.000000
vt 0.125000 0.500000
vt 0.125000 0.750000
vt 0.875000 0.500000
vt 0.875000 0.750000
vt 0.375000 0.000000
vt 0.625000 0.000000
vt 0.625000 0.250000
vt 0.375000 0.250000
vt 0.625000 0.500000
vt 0.375000 0.500000
vt 0.625000 0.750000
vt 0.375000 0.750000
vt 0.625000 1.000000
vt 0.375000 1.000000
vt 0.125000 0.500000
vt 0.125000 0.750000
vt 0.875000 0.500000
vt 0.875000 0.750000
vt 0.375000 0.000000
vt 0.625000 0.000000
vt 0.625000 0.250000
vt 0.375000 0.250000
vt 0.625000 0.500000
vt 0.375000 0.500000
vt 0.625000 0.750000
vt 0.375000 0.750000
vt 0.625000 1.000000
vt 0.375000 1.000000
vt 0.125000 0.500000
vt 0.125000 0.750000
vt 0.875000 0.500000
vt 0.875000 0.750000
vt 0.375000 0.000000
vt 0.625000 0.000000
vt 0.625000 0.250000
vt 0.375000 0.250000
vt 0.625000 0.500000
vt 0.375000 0.500000
vt 0.625000 0.750000
vt 0.375000 0.750000
vt 0.625000 1.000000
vt 0.375000 1.000000
vt 0.125000 0.500000
vt 0.125000 0.750000
vt 0.875000 0.500000
vt 0.875000 0.750000
vt 0.375000 0.000000
vt 0.625000 0.000000
vt 0.625000 0.250000
vt 0.375000 0.250000
vt 0.625000 0.500000
vt 0.375000 0.500000
vt 0.625000 0.750000
vt 0.375000 0.750000
vt 0.625000 1.000000
vt 0.375000 1.000000
vt 0.125000 0.500000
vt 0.125000 0.750000
vt 0.875000 0.500000
vt 0.875000 0.750000
vt 0.375000 0.000000
vt 0.625000 0.000000
vt 0.625000 0.250000
vt 0.375000 0.250000
vt 0.625000 0.500000
vt 0.375000 0.500000
vt 0.625000 0.750000
vt 0.375000 0.750000
vt 0.625000 1.000000
vt 0.375000 1.000000
vt 0.125000 0.500000
vt 0.125000 0.750000
vt 0.875000 0.500000
vt 0.875000 0.750000
vt 1.000000 0.500000
vt 1.000000 1.000000
vt 0.937500 1.000000
vt 0.937500 0.500000
vt 0.875000 1.000000
vt 0.875000 0.500000
vt 0.812500 1.000000
vt 0.812500 0.500000
vt 0.750000 1.000000
vt 0.750000 0.500000
vt 0.687500 1.000000
vt 0.687500 0.500000
vt 0.625000 1.000000
vt 0.625000 0.500000
vt 0.562500 1.000000
vt 0.562500 0.500000
vt 0.500000 1.000000
vt 0.500000 0.500000
vt 0.437500 1.000000
vt 0.437500 0.500000
vt 0.375000 1.000000
vt 0.375000 0.500000
vt 0.312500 1.000000
vt 0.312500 0.500000
vt 0.250000 1.000000
vt 0.250000 0.500000
vt 0.187500 1.000000
vt 0.187500 0.500000
vt 0.125000 1.000000
vt 0.125000 0.500000
vt 0.341844 0.471731
vt 0.250000 0.490000
vt 0.158156 0.471731
vt 0.080294 0.419706
vt 0.028269 0.341844
vt 0.010000 0.250000
vt 0.028269 0.158156
vt 0.080294 0.080294
vt 0.158156 0.028269
vt 0.250000 0.010000
vt 0.341844 0.028269
vt 0.419706 0.080294
vt 0.471731 0.158156
vt 0.490000 0.250000
vt 0.471731 0.341844
vt 0.419706 0.419706
vt 0.062500 1.000000
vt 0.062500 0.500000
vt 0.000000 1.000000
vt 0.000000 0.500000
vt 0.750000 0.490000
vt 0.841844 0.471731
vt 0.919706 0.419706
vt 0.971731 0.341844
vt 0.990000 0.250000
vt 0.971731 0.158156
vt 0.919706 0.080294
vt 0.841844 0.028269
vt 0.750000 0.010000
vt 0.658156 0.028269
vt 0.580294 0.080294
vt 0.528269 0.158156
vt 0.510000 0.250000
vt 0.528269 0.341844
vt 0.580294 0.419706
vt 0.658156 0.471731
vt 1.000000 0.500000
vt 1.000000 1.000000
vt 0.937500 1.000000
vt 0.937500 0.500000
vt 0.875000 1.000000
vt 0.875000 0.500000
vt 0.812500 1.000000
vt 0.812500 0.500000
vt 0.750000 1.000000
vt 0.750000 0.500000
vt 0.687500 1.000000
vt 0.687500 0.500000
vt 0.625000 1.000000
vt 0.625000 0.500000
vt 0.562500 1.000000
vt 0.562500 0.500000
vt 0.500000 1.000000
vt 0.500000 0.500000
vt 0.437500 1.000000
vt 0.437500 0.500000
vt 0.375000 1.000000
vt 0.375000 0.500000
vt 0.312500 1.000000
vt 0.312500 0.500000
vt 0.250000 1.000000
vt 0.250000 0.500000
vt 0.187500 1.000000
vt 0.187500 0.500000
vt 0.125000 1.000000
vt 0.125000 0.500000
vt 0.341844 0.471731
vt 0.250000 0.490000
vt 0.158156 0.471731
vt 0.080294 0.419706
vt 0.028269 0.341844
vt 0.010000 0.250000
vt 0.028269 0.158156
vt 0.080294 0.080294
vt 0.158156 0.028269
vt 0.250000 0.010000
vt 0.341844 0.028269
vt 0.419706 0.080294
vt 0.471731 0.158156
vt 0.490000 0.250000
vt 0.471731 0.341844
vt 0.419706 0.419706
vt 0.062500 1.000000
vt 0.062500 0.500000
vt 0.000000 1.000000
vt 0.000000 0.500000
vt 0.750000 0.490000
vt 0.841844 0.471731
vt 0.919706 0.419706
vt 0.971731 0.341844
vt 0.990000 0.250000
vt 0.971731 0.158156
vt 0.919706 0.080294
vt 0.841844 0.028269
vt 0.750000 0.010000
vt 0.658156 0.028269
vt 0.580294 0.080294
vt 0.528269 0.158156
vt 0.510000 0.250000
vt 0.528269 0.341844
vt 0.580294 0.419706
vt 0.658156 0.471731
vt 1.000000 0.500000
vt 1.000000 1.000000
vt 0.937500 1.000000
vt 0.937500 0.500000
vt 0.875000 1.000000
vt 0.875000 0.500000
vt 0.812500 1.000000
vt 0.812500 0.500000
vt 0.750000 1.000000
vt 0.750000 0.500000
vt 0.687500 1.000000
vt 0.687500 0.500000
vt 0.625000 1.000000
vt 0.625000 0.500000
vt 0.562500 1.000000
vt 0.562500 0.500000
vt 0.500000 1.000000
vt 0.500000 0.500000
vt 0.437500 1.000000
vt 0.437500 0.500000
vt 0.375000 1.000000
vt 0.375000 0.500000
vt 0.312500 1.000000
vt 0.312500 0.500000
vt 0.250000 1.000000
vt 0.250000 0.500000
vt 0.187500 1.000000
vt 0.187500 0.500000
vt 0.125000 1.000000
vt 0.125000 0.500000
vt 0.341844 0.471731
vt 0.250000 0.490000
vt 0.158156 0.471731
vt 0.080294 0.419706
vt 0.028269 0.341844
vt 0.010000 0.250000
vt 0.028269 0.158156
vt 0.080294 0.080294
vt 0.158156 0.028269
vt 0.250000 0.010000
vt 0.341844 0.028269
vt 0.419706 0.080294
vt 0.471731 0.158156
vt 0.490000 0.250000
vt 0.471731 0.341844
vt 0.419706 0.419706
vt 0.062500 1.000000
vt 0.062500 0.500000
vt 0.000000 1.000000
vt 0.000000 0.500000
vt 0.750000 0.490000
vt 0.841844 0.471731
vt 0.919706 0.419706
vt 0.971731 0.341844
vt 0.990000 0.250000
vt 0.971731 0.158156
vt 0.919706 0.080294
vt 0.841844 0.028269
vt 0.750000 0.010000
vt 0.658156 0.028269
vt 0.580294 0.080294
vt 0.528269 0.158156
vt 0.510000 0.250000
vt 0.528269 0.341844
vt 0.580294 0.419706
vt 0.658156 0.471731
vt 1.000000 0.500000
vt 1.000000 1.000000
vt 0.937500 1.000000
vt 0.937500 0.500000
vt 0.875000 1.000000
vt 0.875000 0.500000
vt 0.812500 1.000000
vt 0.812500 0.500000
vt 0.750000 1.000000
vt 0.750000 0.500000
vt 0.687500 1.000000
vt 0.687500 0.500000
vt 0.625000 1.000000
vt 0.625000 0.500000
vt 0.562500 1.000000
vt 0.562500 0.500000
vt 0.500000 1.000000
vt 0.500000 0.500000
vt 0.437500 1.000000
vt 0.437500 0.500000
vt 0.375000 1.000000
vt 0.375000 0.500000
vt 0.312500 1.000000
vt 0.312500 0.500000
vt 0.250000 1.000000
vt 0.250000 0.500000
vt 0.187500 1.000000
vt 0.187500 0.500000
vt 0.125000 1.000000
vt 0.125000 0.500000
vt 0.341844 0.471731
vt 0.250000 0.490000
vt 0.158156 0.471731
vt 0.080294 0.419706
vt 0.028269 0.341844
vt 0.010000 0.250000
vt 0.028269 0.158156
vt 0.080294 0.080294
vt 0.158156 0.028269
vt 0.250000 0.010000
vt 0.341844 0.028269
vt 0.419706 0.080294
vt 0.471731 0.158156
vt 0.490000 0.250000
vt 0.471731 0.341844
vt 0.419706 0.419706
vt 0.062500 1.000000
vt 0.062500 0.500000
vt 0.000000 1.000000
vt 0.000000 0.500000
vt 0.750000 0.490000
vt 0.841844 0.471731
vt 0.919706 0.419706
vt 0.971731 0.341844
vt 0.990000 0.250000
vt 0.971731 0.158156
vt 0.919706 0.080294
vt 0.841844 0.028269
vt 0.750000 0.010000
vt 0.658156 0.028269
vt 0.580294 0.080294
vt 0.528269 0.158156
vt 0.510000 0.250000
vt 0.528269 0.341844
vt 0.580294 0.419706
vt 0.658156 0.471731
vt 1.000000 0.500000
vt 1.000000 1.000000
vt 0.937500 1.000000
vt 0.937500 0.500000
vt 0.875000 1.000000
vt 0.875000 0.500000
vt 0.812500 1.000000
vt 0.812500 0.500000
vt 0.750000 1.000000
vt 0.750000 0.500000
vt 0.687500 1.000000
vt 0.687500 0.500000
vt 0.625000 1.000000
vt 0.625000 0.500000
vt 0.562500 1.000000
vt 0.562500 0.500000
vt 0.500000 1.000000
vt 0.500000 0.500000
vt 0.437500 1.000000
vt 0.437500 0.500000
vt 0.375000 1.000000
vt 0.375000 0.500000
vt 0.312500 1.000000
vt 0.312500 0.500000
vt 0.250000 1.000000
vt 0.250000 0.500000
vt 0.187500 1.000000
vt 0.187500 0.500000
vt 0.125000 1.000000
vt 0.125000 0.500000
vt 0.341844 0.471731
vt 0.250000 0.490000
vt 0.158156 0.471731
vt 0.080294 0.419706
vt 0.028269 0.341844
vt 0.010000 0.250000
vt 0.028269 0.158156
vt 0.080294 0.080294
vt 0.158156 0.028269
vt 0.250000 0.010000
vt 0.341844 0.028269
vt 0.419706 0.080294
vt 0.471731 0.158156
vt 0.490000 0.250000
vt 0.471731 0.341844
vt 0.419706 0.419706
vt 0.062500 1.000000
vt 0.062500 0.500000
vt 0.000000 1.000000
vt 0.000000 0.500000
vt 0.750000 0.490000
vt 0.841844 0.471731
vt 0.919706 0.419706
vt 0.971731 0.341844
vt 0.990000 0.250000
vt 0.971731 0.158156
vt 0.919706 0.080294
vt 0.841844 0.028269
vt 0.750000 0.010000
vt 0.658156 0.028269
vt 0.580294 0.080294
vt 0.528269 0.158156
vt 0.510000 0.250000
vt 0.528269 0.341844
vt 0.580294 0.419706
vt 0.658156 0.471731
vt 1.000000 0.500000
vt 1.000000 1.000000
vt 0.937500 1.000000
vt 0.937500 0.500000
vt 0.875000 1.000000
vt 0.875000 0.500000
vt 0.812500 1.000000
vt 0.812500 0.500000
vt 0.750000 1.000000
vt 0.750000 0.500000
vt 0.687500 1.000000
vt 0.687500 0.500000
vt 0.625000 1.000000
vt 0.625000 0.500000
vt 0.562500 1.000000
vt 0.562500 0.500000
vt 0.500000 1.000000
vt 0.500000 0.500000
vt 0.437500 1.000000
vt 0.437500 0.500000
vt 0.375000 1.000000
vt 0.375000 0.500000
vt 0.312500 1.000000
vt 0.312500 0.500000
vt 0.250000 1.000000
vt 0.250000 0.500000
vt 0.187500 1.000000
vt 0.187500 0.500000
vt 0.125000 1.000000
vt 0.125000 0.500000
vt 0.341844 0.471731
vt 0.250000 0.490000
vt 0.158156 0.471731
vt 0.080294 0.419706
vt 0.028269 0.341844
vt 0.010000 0.250000
vt 0.028269 0.158156
vt 0.080294 0.080294
vt 0.158156 0.028269
vt 0.250000 0.010000
vt 0.341844 0.028269
vt 0.419706 0.080294
vt 0.471731 0.158156
vt 0.490000 0.250000
vt 0.471731 0.341844
vt 0.419706 0.419706
vt 0.062500 1.000000
vt 0.062500 0.500000
vt 0.000000 1.000000
vt 0.000000 0.500000
vt 0.750000 0.490000
vt 0.841844 0.471731
vt 0.919706 0.419706
vt 0.971731 0.341844
vt 0.990000 0.250000
vt 0.971731 0.158156
vt 0.919706 0.080294
vt 0.841844 0.028269
vt 0.750000 0.010000
vt 0.658156 0.028269
vt 0.580294 0.080294
vt 0.528269 0.158156
vt 0.510000 0.250000
vt 0.528269 0.341844
vt 0.580294 0.419706
vt 0.658156 0.471731
vt 1.000000 0.500000
vt 1.000000 1.000000
vt 0.937500 1.000000
vt 0.937500 0.500000
vt 0.875000 1.000000
vt 0.875000 0.500000
vt 0.812500 1.000000
vt 0.812500 0.500000
vt 0.750000 1.000000
vt 0.750000 0.500000
vt 0.687500 1.000000
vt 0.687500 0.500000
vt 0.625000 1.000000
vt 0.625000 0.500000
vt 0.562500 1.000000
vt 0.562500 0.500000
vt 0.500000 1.000000
vt 0.500000 0.500000
vt 0.437500 1.000000
vt 0.437500 0.500000
vt 0.375000 1.000000
vt 0.375000 0.500000
vt 0.312500 1.000000
vt 0.312500 0.500000
vt 0.250000 1.000000
vt 0.250000 0.500000
vt 0.187500 1.000000
vt 0.187500 0.500000
vt 0.125000 1.000000
vt 0.125000 0.500000
vt 0.341844 0.471731
vt 0.250000 0.490000
vt 0.158156 0.471731
vt 0.080294 0.419706
vt 0.028269 0.341844
vt 0.010000 0.250000
vt 0.028269 0.158156
vt 0.080294 0.080294
vt 0.158156 0.028269
vt 0.250000 0.010000
vt 0.341844 0.028269
vt 0.419706 0.080294
vt 0.471731 0.158156
vt 0.490000 0.250000
vt 0.471731 0.341844
vt 0.419706 0.419706
vt 0.062500 1.000000
vt 0.062500 0.500000
vt 0.000000 1.000000
vt 0.000000 0.500000
vt 0.750000 0.490000
vt 0.841844 0.471731
vt 0.919706 0.419706
vt 0.971731 0.341844
vt 0.990000 0.250000
vt 0.971731 0.158156
vt 0.919706 0.080294
vt 0.841844 0.028269
vt 0.750000 0.010000
vt 0.658156 0.028269
vt 0.580294 0.080294
vt 0.528269 0.158156
vt 0.510000 0.250000
vt 0.528269 0.341844
vt 0.580294 0.419706
vt 0.658156 0.471731
vt 1.000000 0.500000
vt 1.000000 1.000000
vt 0.937500 1.000000
vt 0.937500 0.500000
vt 0.875000 1.000000
vt 0.875000 0.500000
vt 0.812500 1.000000
vt 0.812500 0.500000
vt 0.750000 1.000000
vt 0.750000 0.500000
vt 0.687500 1.000000
vt 0.687500 0.500000
vt 0.625000 1.000000
vt 0.625000 0.500000
vt 0.562500 1.000000
vt 0.562500 0.500000
vt 0.500000 1.000000
vt 0.500000 0.500000
vt 0.437500 1.000000
vt 0.437500 0.500000
vt 0.375000 1.000000
vt 0.375000 0.500000
vt 0.312500 1.000000
vt 0.312500 0.500000
vt 0.250000 1.000000
vt 0.250000 0.500000
vt 0.187500 1.000000
vt 0.187500 0.500000
vt 0.125000 1.000000
vt 0.125000 0.500000
vt 0.341844 0.471731
vt 0.250000 0.490000
vt 0.158156 0.471731
vt 0.080294 0.419706
vt 0.028269 0.341844
vt 0.010000 0.250000
vt 0.028269 0.158156
vt 0.080294 0.080294
vt 0.158156 0.028269
vt 0.250000 0.010000
vt 0.341844 0.028269
vt 0.419706 0.080294
vt 0.471731 0.158156
vt 0.490000 0.250000
vt 0.471731 0.341844
vt 0.419706 0.419706
vt 0.062500 1.000000
vt 0.062500 0.500000
vt 0.000000 1.000000
vt 0.000000 0.500000
vt 0.750000 0.490000
vt 0.841844 0.471731
vt 0.919706 0.419706
vt 0.971731 0.341844
vt 0.990000 0.250000
vt 0.971731 0.158156
vt 0.919706 0.080294
vt 0.841844 0.028269
vt 0.750000 0.010000
vt 0.658156 0.028269
vt 0.580294 0.080294
vt 0.528269 0.158156
vt 0.510000 0.250000
vt 0.528269 0.341844
vt 0.580294 0.419706
vt 0.658156 0.471731
vt 1.000000 0.500000
vt 1.000000 1.000000
vt 0.937500 1.000000
vt 0.937500 0.500000
vt 0.875000 1.000000
vt 0.875000 0.500000
vt 0.812500 1.000000
vt 0.812500 0.500000
vt 0.750000 1.000000
vt 0.750000 0.500000
vt 0.687500 1.000000
vt 0.687500 0.500000
vt 0.625000 1.000000
vt 0.625000 0.500000
vt 0.562500 1.000000
vt 0.562500 0.500000
vt 0.500000 1.000000
vt 0.500000 0.500000
vt 0.437500 1.000000
vt 0.437500 0.500000
vt 0.375000 1.000000
vt 0.375000 0.500000
vt 0.312500 1.000000
vt 0.312500 0.500000
vt 0.250000 1.000000
vt 0.250000 0.500000
vt 0.187500 1.000000
vt 0.187500 0.500000
vt 0.125000 1.000000
vt 0.125000 0.500000
vt 0.341844 0.471731
vt 0.250000 0.490000
vt 0.158156 0.471731
vt 0.080294 0.419706
vt 0.028269 0.341844
vt 0.010000 0.250000
vt 0.028269 0.158156
vt 0.080294 0.080294
vt 0.158156 0.028269
vt 0.250000 0.010000
vt 0.341844 0.028269
vt 0.419706 0.080294
vt 0.471731 0.158156
vt 0.490000 0.250000
vt 0.471731 0.341844
vt 0.419706 0.419706
vt 0.062500 1.000000
vt 0.062500 0.500000
vt 0.000000 1.000000
vt 0.000000 0.500000
vt 0.750000 0.490000
vt 0.841844 0.471731
vt 0.919706 0.419706
vt 0.971731 0.341844
vt 0.990000 0.250000
vt 0.971731 0.158156
vt 0.919706 0.080294
vt 0.841844 0.028269
vt 0.750000 0.010000
vt 0.658156 0.028269
vt 0.580294 0.080294
vt 0.528269 0.158156
vt 0.510000 0.250000
vt 0.528269 0.341844
vt 0.580294 0.419706
vt 0.658156 0.471731
vt 1.000000 0.500000
vt 1.000000 1.000000
vt 0.937500 1.000000
vt 0.937500 0.500000
vt 0.875000 1.000000
vt 0.875000 0.500000
vt 0.812500 1.000000
vt 0.812500 0.500000
vt 0.750000 1.000000
vt 0.750000 0.500000
vt 0.687500 1.000000
vt 0.687500 0.500000
vt 0.625000 1.000000
vt 0.625000 0.500000
vt 0.562500 1.000000
vt 0.562500 0.500000
vt 0.500000 1.000000
vt 0.500000 0.500000
vt 0.437500 1.000000
vt 0.437500 0.500000
vt 0.375000 1.000000
vt 0.375000 0.500000
vt 0.312500 1.000000
vt 0.312500 0.500000
vt 0.250000 1.000000
vt 0.250000 0.500000
vt 0.187500 1.000000
vt 0.187500 0.500000
vt 0.125000 1.000000
vt 0.125000 0.500000
vt 0.341844 0.471731
vt 0.250000 0.490000
vt 0.158156 0.471731
vt 0.080294 0.419706
vt 0.028269 0.341844
vt 0.010000 0.250000
vt 0.028269 0.158156
vt 0.080294 0.080294
vt 0.158156 0.028269
vt 0.250000 0.010000
vt 0.341844 0.028269
vt 0.419706 0.080294
vt 0.471731 0.158156
vt 0.490000 0.250000
vt 0.471731 0.341844
vt 0.419706 0.419706
vt 0.062500 1.000000
vt 0.062500 0.500000
vt 0.000000 1.000000
vt 0.000000 0.500000
vt 0.750000 0.490000
vt 0.841844 0.471731
vt 0.919706 0.419706
vt 0.971731 0.341844
vt 0.990000 0.250000
vt 0.971731 0.158156
vt 0.919706 0.080294
vt 0.841844 0.028269
vt 0.750000 0.010000
vt 0.658156 0.028269
vt 0.580294 0.080294
vt 0.528269 0.158156
vt 0.510000 0.250000
vt 0.528269 0.341844
vt 0.580294 0.419706
vt 0.658156 0.471731
vt 1.000000 0.500000
vt 1.000000 1.000000
vt 0.937500 1.000000
vt 0.937500 0.500000
vt 0.875000 1.000000
vt 0.875000 0.500000
vt 0.812500 1.000000
vt 0.812500 0.500000
vt 0.750000 1.000000
vt 0.750000 0.500000
vt 0.687500 1.000000
vt 0.687500 0.500000
vt 0.625000 1.000000
vt 0.625000 0.500000
vt 0.562500 1.000000
vt 0.562500 0.500000
vt 0.500000 1.000000
vt 0.500000 0.500000
vt 0.437500 1.000000
vt 0.437500 0.500000
vt 0.375000 1.000000
vt 0.375000 0.500000
vt 0.312500 1.000000
vt 0.312500 0.500000
vt 0.250000 1.000000
vt 0.250000 0.500000
vt 0.187500 1.000000
vt 0.187500 0.500000
vt 0.125000 1.000000
vt 0.125000 0.500000
vt 0.341844 0.471731
vt 0.250000 0.490000
vt 0.158156 0.471731
vt 0.080294 0.419706
vt 0.028269 0.341844
vt 0.010000 0.250000
vt 0.028269 0.158156
vt 0.080294 0.080294
vt 0.158156 0.028269
vt 0.250000 0.010000
vt 0.341844 0.028269
vt 0.419706 0.080294
vt 0.471731 0.158156
vt 0.490000 0.250000
vt 0.471731 0.341844
vt 0.419706 0.419706
vt 0.062500 1.000000
vt 0.062500 0.500000
vt 0.000000 1.000000
vt 0.000000 0.500000
vt 0.750000 0.490000
vt 0.841844 0.471731
vt 0.919706 0.419706
vt 0.971731 0.341844
vt 0.990000 0.250000
vt 0.971731 0.158156
vt 0.919706 0.080294
vt 0.841844 0.028269
vt 0.750000 0.010000
vt 0.658156 0.028269
vt 0.580294 0.080294
vt 0.528269 0.158156
vt 0.510000 0.250000
vt 0.528269 0.341844
vt 0.580294 0.419706
vt 0.658156 0.471731
vt 1.000000 0.500000
vt 1.000000 1.000000
vt 0.937500 1.000000
vt 0.937500 0.500000
vt 0.875000 1.000000
vt 0.875000 0.500000
vt 0.812500 1.000000
vt 0.812500 0.500000
vt 0.750000 1.000000
vt 0.750000 0.500000
vt 0.687500 1.000000
vt 0.687500 0.500000
vt 0.625000 1.000000
vt 0.625000 0.500000
vt 0.562500 1.000000
vt 0.562500 0.500000
vt 0.500000 1.000000
vt 0.500000 0.500000
vt 0.437500 1.000000
vt 0.437500 0.500000
vt 0.375000 1.000000
vt 0.375000 0.500000
vt 0.312500 1.000000
vt 0.312500 0.500000
vt 0.250000 1.000000
vt 0.250000 0.500000
vt 0.187500 1.000000
vt 0.187500 0.500000
vt 0.125000 1.000000
vt 0.125000 0.500000
vt 0.341844 0.471731
vt 0.250000 0.490000
vt 0.158156 0.471731
vt 0.080294 0.419706
vt 0.028269 0.341844
vt 0.010000 0.250000
vt 0.028269 0.158156
vt 0.080294 0.080294
vt 0.158156 0.028269
vt 0.250000 0.010000
vt 0.341844 0.028269
vt 0.419706 0.080294
vt 0.471731 0.158156
vt 0.490000 0.250000
vt 0.471731 0.341844
vt 0.419706 0.419706
vt 0.062500 1.000000
vt 0.062500 0.500000
vt 0.000000 1.000000
vt 0.000000 0.500000
vt 0.750000 0.490000
vt 0.841844 0.471731
vt 0.919706 0.419706
vt 0.971731 0.341844
vt 0.990000 0.250000
vt 0.971731 0.158156
vt 0.919706 0.080294
vt 0.841844 0.028269
vt 0.750000 0.010000
vt 0.658156 0.028269
vt 0.580294 0.080294
vt 0.528269 0.158156
vt 0.510000 0.250000
vt 0.528269 0.341844
vt 0.580294 0.419706
vt 0.658156 0.471731
vt 1.000000 0.500000
vt 1.000000 1.000000
vt 0.937500 1.000000
vt 0.937500 0.500000
vt 0.875000 1.000000
vt 0.875000 0.500000
vt 0.812500 1.000000
vt 0.812500 0.500000
vt 0.750000 1.000000
vt 0.750000 0.500000
vt 0.687500 1.000000
vt 0.687500 0.500000
vt 0.625000 1.000000
vt 0.625000 0.500000
vt 0.562500 1.000000
vt 0.562500 0.500000
vt 0.500000 1.000000
vt 0.500000 0.500000
vt 0.437500 1.000000
vt 0.437500 0.500000
vt 0.375000 1.000000
vt 0.375000 0.500000
vt 0.312500 1.000000
vt 0.312500 0.500000
vt 0.250000 1.000000
vt 0.250000 0.500000
vt 0.187500 1.000000
vt 0.187500 0.500000
vt 0.125000 1.000000
vt 0.125000 0.500000
vt 0.341844 0.471731
vt 0.250000 0.490000
vt 0.158156 0.471731
vt 0.080294 0.419706
vt 0.028269 0.341844
vt 0.010000 0.250000
vt 0.028269 0.158156
vt 0.080294 0.080294
vt 0.158156 0.028269
vt 0.250000 0.010000
vt 0.341844 0.028269
vt 0.419706 0.080294
vt 0.471731 0.158156
vt 0.490000 0.250000
vt 0.471731 0.341844
vt 0.419706 0.419706
vt 0.062500 1.000000
vt 0.062500 0.500000
vt 0.000000 1.000000
vt 0.000000 0.500000
vt 0.750000 0.490000
vt 0.841844 0.471731
vt 0.919706 0.419706
vt 0.971731 0.341844
vt 0.990000 0.250000
vt 0.971731 0.158156
vt 0.919706 0.080294
vt 0.841844 0.028269
vt 0.750000 0.010000
vt 0.658156 0.028269
vt 0.580294 0.080294
vt 0.528269 0.158156
vt 0.510000 0.250000
vt 0.528269 0.341844
vt 0.580294 0.419706
vt 0.658156 0.471731
vt 1.000000 0.500000
vt 1.000000 1.000000
vt 0.937500 1.000000
vt 0.937500 0.500000
vt 0.875000 1.000000
vt 0.875000 0.500000
vt 0.812500 1.000000
vt 0.812500 0.500000
vt 0.750000 1.000000
vt 0.750000 0.500000
vt 0.687500 1.000000
vt 0.687500 0.500000
vt 0.625000 1.000000
vt 0.625000 0.500000
vt 0.562500 1.000000
vt 0.562500 0.500000
vt 0.500000 1.000000
vt 0.500000 0.500000
vt 0.437500 1.000000
vt 0.437500 0.500000
vt 0.375000 1.000000
vt 0.375000 0.500000
vt 0.312500 1.000000
vt 0.312500 0.500000
vt 0.250000 1.000000
vt 0.250000 0.500000
vt 0.187500 1.000000
vt 0.187500 0.500000
vt 0.125000 1.000000
vt 0.125000 0.500000
vt 0.341844 0.471731
vt 0.250000 0.490000
vt 0.158156 0.471731
vt 0.080294 0.419706
vt 0.028269 0.341844
vt 0.010000 0.250000
vt 0.028269 0.158156
vt 0.080294 0.080294
vt 0.158156 0.028269
vt 0.250000 0.010000
vt 0.341844 0.028269
vt 0.419706 0.080294
vt 0.471731 0.158156
vt 0.490000 0.250000
vt 0.471731 0.341844
vt 0.419706 0.419706
vt 0.062500 1.000000
vt 0.062500 0.500000
vt 0.000000 1.000000
vt 0.000000 0.500000
vt 0.750000 0.490000
vt 0.841844 0.471731
vt 0.919706 0.419706
vt 0.971731 0.341844
vt 0.990000 0.250000
vt 0.971731 0.158156
vt 0.919706 0.080294
vt 0.841844 0.028269
vt 0.750000 0.010000
vt 0.658156 0.028269
vt 0.580294 0.080294
vt 0.528269 0.158156
vt 0.510000 0.250000
vt 0.528269 0.341844
vt 0.580294 0.419706
vt 0.658156 0.471731
vt 1.000000 0.500000
vt 1.000000 1.000000
vt 0.937500 1.000000
vt 0.937500 0.500000
vt 0.875000 1.000000
vt 0.875000 0.500000
vt 0.812500 1.000000
vt 0.812500 0.500000
vt 0.750000 1.000000
vt 0.750000 0.500000
vt 0.687500 1.000000
vt 0.687500 0.500000
vt 0.625000 1.000000
vt 0.625000 0.500000
vt 0.562500 1.000000
vt 0.562500 0.500000
vt 0.500000 1.000000
vt 0.500000 0.500000
vt 0.437500 1.000000
vt 0.437500 0.500000
vt 0.375000 1.000000
vt 0.375000 0.500000
vt 0.312500 1.000000
vt 0.312500 0.500000
vt 0.250000 1.000000
vt 0.250000 0.500000
vt 0.187500 1.000000
vt 0.187500 0.500000
vt 0.125000 1.000000
vt 0.125000 0.500000
vt 0.341844 0.471731
vt 0.250000 0.490000
vt 0.158156 0.471731
vt 0.080294 0.419706
vt 0.028269 0.341844
vt 0.010000 0.250000
vt 0.028269 0.158156
vt 0.080294 0.080294
vt 0.158156 0.028269
vt 0.250000 0.010000
vt 0.341844 0.028269
vt 0.419706 0.080294
vt 0.471731 0.158156
vt 0.490000 0.250000
vt 0.471731 0.341844
vt 0.419706 0.419706
vt 0.062500 1.000000
vt 0.062500 0.500000
vt 0.000000 1.000000
vt 0.000000 0.500000
vt 0.750000 0.490000
vt 0.841844 0.471731
vt 0.919706 0.419706
vt 0.971731 0.341844
vt 0.990000 0.250000
vt 0.971731 0.158156
vt 0.919706 0.080294
vt 0.841844 0.028269
vt 0.750000 0.010000
vt 0.658156 0.028269
vt 0.580294 0.080294
vt 0.528269 0.158156
vt 0.510000 0.250000
vt 0.528269 0.341844
vt 0.580294 0.419706
vt 0.658156 0.471731
vt 1.000000 0.500000
vt 1.000000 1.000000
vt 0.937500 1.000000
vt 0.937500 0.500000
vt 0.875000 1.000000
vt 0.875000 0.500000
vt 0.812500 1.000000
vt 0.812500 0.500000
vt 0.750000 1.000000
vt 0.750000 0.500000
vt 0.687500 1.000000
vt 0.687500 0.500000
vt 0.625000 1.000000
vt 0.625000 0.500000
vt 0.562500 1.000000
vt 0.562500 0.500000
vt 0.500000 1.000000
vt 0.500000 0.500000
vt 0.437500 1.000000
vt 0.437500 0.500000
vt 0.375000 1.000000
vt 0.375000 0.500000
vt 0.312500 1.000000
vt 0.312500 0.500000
vt 0.250000 1.000000
vt 0.250000 0.500000
vt 0.187500 1.000000
vt 0.187500 0.500000
vt 0.125000 1.000000
vt 0.125000 0.500000
vt 0.341844 0.471731
vt 0.250000 0.490000
vt 0.158156 0.471731
vt 0.080294 0.419706
vt 0.028269 0.341844
vt 0.010000 0.250000
vt 0.028269 0.158156
vt 0.080294 0.080294
vt 0.158156 0.028269
vt 0.250000 0.010000
vt 0.341844 0.028269
vt 0.419706 0.080294
vt 0.471731 0.158156
vt 0.490000 0.250000
vt 0.471731 0.341844
vt 0.419706 0.419706
vt 0.062500 1.000000
vt 0.062500 0.500000
vt 0.000000 1.000000
vt 0.000000 0.500000
vt 0.750000 0.490000
vt 0.841844 0.471731
vt 0.919706 0.419706
vt 0.971731 0.341844
vt 0.990000 0.250000
vt 0.971731 0.158156
vt 0.919706 0.080294
vt 0.841844 0.028269
vt 0.750000 0.010000
vt 0.658156 0.028269
vt 0.580294 0.080294
vt 0.528269 0.158156
vt 0.510000 0.250000
vt 0.528269 0.341844
vt 0.580294 0.419706
vt 0.658156 0.471731
vt 0.375000 0.000000
vt 0.625000 0.000000
vt 0.625000 0.250000
vt 0.375000 0.250000
vt 0.625000 0.500000
vt 0.375000 0.500000
vt 0.625000 0.750000
vt 0.375000 0.750000
vt 0.625000 1.000000
vt 0.375000 1.000000
vt 0.125000 0.500000
vt 0.125000 0.750000
vt 0.875000 0.500000
vt 0.875000 0.750000
vn -0.5773 -0.5773 0.5773
vn -0.5773 0.5773 0.5773
vn -0.5773 0.5773 -0.5773
vn -0.5773 -0.5773 -0.5773
vn 0.5773 0.5773 -0.5773
vn 0.5773 -0.5773 -0.5773
vn 0.5773 0.5773 0.5773
vn 0.5773 -0.5773 0.5773
vn -1.0000 0.0000 0.0000
vn 0.0000 0.0000 -1.0000
vn 1.0000 0.0000 0.0000
vn 0.0000 0.0000 1.0000
vn 0.0000 -1.0000 0.0000
vn 0.0000 1.0000 0.0000
vn 0.1951 0.9808 0.0000
vn 0.5556 0.8315 0.0000
vn 0.8315 0.5556 0.0000
vn 0.9808 0.1951 0.0000
vn 0.9808 -0.1951 0.0000
vn 0.8315 -0.5556 0.0000
vn 0.5556 -0.8315 0.0000
vn 0.1951 -0.9808 0.0000
vn -0.1951 -0.9808 0.0000
vn -0.5556 -0.8315 0.0000
vn -0.8315 -0.5556 0.0000
vn -0.9808 -0.1951 0.0000
vn -0.9808 0.1951 0.0000
vn -0.8315 0.5556 0.0000
vn -0.5556 0.8315 0.0000
vn -0.1951 0.9808 0.0000
usemtl Synth_Body
s 1
f 1/1/1 2/2/2 4/3/3 3/4/4
f 3/4/4 4/3/3 8/5/5 7/6/6
f 7/6/6 8/5/5 6/7/7 5/8/8
f 5/8/8 6/7/7 2/9/2 1/10/1
f 3/11/4 7/6/6 5/8/8 1/12/1
f 8/5/5 4/13/3 2/14/2 6/7/7
usemtl Synth_Keys
s off
f 17/15/9 18/16/9 20/17/9 19/18/9
f 19/18/10 20/17/10 24/19/10 23/20/10
f 23/20/11 24/19/11 22/21/11 21/22/11
f 21/22/12 22/21/12 18/23/12 17/24/12
f 19/25/13 23/20/13 21/22/13 17/26/13
f 24/19/14 20/27/14 18/28/14 22/21/14
f 25/29/9 26/30/9 28/31/9 27/32/9
f 27/32/10 28/31/10 32/33/10 31/34/10
f 31/34/11 32/33/11 30/35/11 29/36/11
f 29/36/12 30/35/12 26/37/12 25/38/12
f 27/39/13 31/34/13 29/36/13 25/40/13
f 32/33/14 28/41/14 26/42/14 30/35/14
f 33/43/9 34/44/9 36/45/9 35/46/9
f 35/46/10 36/45/10 40/47/10 39/48/10
f 39/48/11 40/47/11 38/49/11 37/50/11
f 37/50/12 38/49/12 34/51/12 33/52/12
f 35/53/13 39/48/13 37/50/13 33/54/13
f 40/47/14 36/55/14 34/56/14 38/49/14
f 41/57/9 42/58/9 44/59/9 43/60/9
f 43/60/10 44/59/10 48/61/10 47/62/10
f 47/62/11 48/61/11 46/63/11 45/64/11
f 45/64/12 46/63/12 42/65/12 41/66/12
f 43/67/13 47/62/13 45/64/13 41/68/13
f 48/61/14 44/69/14 42/70/14 46/63/14
f 49/71/9 50/72/9 52/73/9 51/74/9
f 51/74/10 52/73/10 56/75/10 55/76/10
f 55/76/11 56/75/11 54/77/11 53/78/11
f 53/78/12 54/77/12 50/79/12 49/80/12
f 51/81/13 55/76/13 53/78/13 49/82/13
f 56/75/14 52/83/14 50/84/14 54/77/14
f 57/85/9 58/86/9 60/87/9 59/88/9
f 59/88/10 60/87/10 64/89/10 63/90/10
f 63/90/11 64/89/11 62/91/11 61/92/11
f 61/92/12 62/91/12 58/93/12 57/94/12
f 59/95/13 63/90/13 61/92/13 57/96/13
f 64/89/14 60/97/14 58/98/14 62/91/14
f 65/99/9 66/100/9 68/101/9 67/102/9
f 67/102/10 68/101/10 72/103/10 71/104/10
f 71/104/11 72/103/11 70/105/11 69/106/11
f 69/106/12 70/105/12 66/107/12 65/108/12
f 67/109/13 71/104/13 69/106/13 65/110/13
f 72/103/14 68/111/14 66/112/14 70/105/14
f 73/113/9 74/114/9 76/115/9 75/116/9
f 75/116/10 76/115/10 80/117/10 79/118/10
f 79/118/11 80/117/11 78/119/11 77/120/11
f 77/120/12 78/119/12 74/121/12 73/122/12
f 75/123/13 79/118/13 77/120/13 73/124/13
f 80/117/14 76/125/14 74/126/14 78/119/14
f 81/127/9 82/128/9 84/129/9 83/130/9
f 83/130/10 84/129/10 88/131/10 87/132/10
f 87/132/11 88/131/11 86/133/11 85/134/11
f 85/134/12 86/133/12 82/135/12 81/136/12
f 83/137/13 87/132/13 85/134/13 81/138/13
f 88/131/14 84/139/14 82/140/14 86/133/14
f 89/141/9 90/142/9 92/143/9 91/144/9
f 91/144/10 92/143/10 96/145/10 95/146/10
f 95/146/11 96/145/11 94/147/11 93/148/11
f 93/148/12 94/147/12 90/149/12 89/150/12
f 91/151/13 95/146/13 93/148/13 89/152/13
f 96/145/14 92/153/14 90/154/14 94/147/14
f 97/155/9 98/156/9 100/157/9 99/158/9
f 99/158/10 100/157/10 104/159/10 103/160/10
f 103/160/11 104/159/11 102/161/11 101/162/11
f 101/162/12 102/161/12 98/163/12 97/164/12
f 99/165/13 103/160/13 101/162/13 97/166/13
f 104/159/14 100/167/14 98/168/14 102/161/14
f 105/169/9 106/170/9 108/171/9 107/172/9
f 107/172/10 108/171/10 112/173/10 111/174/10
f 111/174/11 112/173/11 110/175/11 109/176/11
f 109/176/12 110/175/12 106/177/12 105/178/12
f 107/179/13 111/174/13 109/176/13 105/180/13
f 112/173/14 108/181/14 106/182/14 110/175/14
f 113/183/9 114/184/9 116/185/9 115/186/9
f 115/186/10 116/185/10 120/187/10 119/188/10
f 119/188/11 120/187/11 118/189/11 117/190/11
f 117/190/12 118/189/12 114/191/12 113/192/12
f 115/193/13 119/188/13 117/190/13 113/194/13
f 120/187/14 116/195/14 114/196/14 118/189/14
f 121/197/9 122/198/9 124/199/9 123/200/9
f 123/200/10 124/199/10 128/201/10 127/202/10
f 127/202/11 128/201/11 126/203/11 125/204/11
f 125/204/12 126/203/12 122/205/12 121/206/12
f 123/207/13 127/202/13 125/204/13 121/208/13
f 128/201/14 124/209/14 122/210/14 126/203/14
f 129/211/9 130/212/9 132/213/9 131/214/9
f 131/214/10 132/213/10 136/215/10 135/216/10
f 135/216/11 136/215/11 134/217/11 133/218/11
f 133/218/12 134/217/12 130/219/12 129/220/12
f 131/221/13 135/216/13 133/218/13 129/222/13
f 136/215/14 132/223/14 130/224/14 134/217/14
f 137/225/9 138/226/9 140/227/9 139/228/9
f 139/228/10 140/227/10 144/229/10 143/230/10
f 143/230/11 144/229/11 142/231/11 141/232/11
f 141/232/12 142/231/12 138/233/12 137/234/12
f 139/235/13 143/230/13 141/232/13 137/236/13
f 144/229/14 140/237/14 138/238/14 142/231/14
f 145/239/9 146/240/9 148/241/9 147/242/9
f 147/242/10 148/241/10 152/243/10 151/244/10
f 151/244/11 152/243/11 150/245/11 149/246/11
f 149/246/12 150/245/12 146/247/12 145/248/12
f 147/249/13 151/244/13 149/246/13 145/250/13
f 152/243/14 148/251/14 146/252/14 150/245/14
f 153/253/9 154/254/9 156/255/9 155/256/9
f 155/256/10 156/255/10 160/257/10 159/258/10
f 159/258/11 160/257/11 158/259/11 157/260/11
f 157/260/12 158/259/12 154/261/12 153/262/12
f 155/263/13 159/258/13 157/260/13 153/264/13
f 160/257/14 156/265/14 154/266/14 158/259/14
f 161/267/9 162/268/9 164/269/9 163/270/9
f 163/270/10 164/269/10 168/271/10 167/272/10
f 167/272/11 168/271/11 166/273/11 165/274/11
f 165/274/12 166/273/12 162/275/12 161/276/12
f 163/277/13 167/272/13 165/274/13 161/278/13
f 168/271/14 164/279/14 162/280/14 166/273/14
f 169/281/9 170/282/9 172/283/9 171/284/9
f 171/284/10 172/283/10 176/285/10 175/286/10
f 175/286/11 176/285/11 174/287/11 173/288/11
f 173/288/12 174/287/12 170/289/12 169/290/12
f 171/291/13 175/286/13 173/288/13 169/292/13
f 176/285/14 172/293/14 170/294/14 174/287/14
f 177/295/9 178/296/9 180/297/9 179/298/9
f 179/298/10 180/297/10 184/299/10 183/300/10
f 183/300/11 184/299/11 182/301/11 181/302/11
f 181/302/12 182/301/12 178/303/12 177/304/12
f 179/305/13 183/300/13 181/302/13 177/306/13
f 184/299/14 180/307/14 178/308/14 182/301/14
s 1
f 9/309/1 10/310/2 12/311/3 11/312/4
f 11/312/4 12/311/3 16/313/5 15/314/6
f 15/314/6 16/313/5 14/315/7 13/316/8
f 13/316/8 14/315/7 10/317/2 9/318/1
f 11/319/4 15/314/6 13/316/8 9/320/1
f 16/313/5 12/321/3 10/322/2 14/315/7
usemtl Synth_BlackKeys
s off
f 185/323/9 186/324/9 188/325/9 187/326/9
f 187/326/10 188/325/10 192/327/10 191/328/10
f 191/328/11 192/327/11 190/329/11 189/330/11
f 189/330/12 190/329/12 186/331/12 185/332/12
f 187/333/13 191/328/13 189/330/13 185/334/13
f 192/327/14 188/335/14 186/336/14 190/329/14
f 193/337/9 194/338/9 196/339/9 195/340/9
f 195/340/10 196/339/10 200/341/10 199/342/10
f 199/342/11 200/341/11 198/343/11 197/344/11
f 197/344/12 198/343/12 194/345/12 193/346/12
f 195/347/13 199/342/13 197/344/13 193/348/13
f 200/341/14 196/349/14 194/350/14 198/343/14
f 201/351/9 202/352/9 204/353/9 203/354/9
f 203/354/10 204/353/10 208/355/10 207/356/10
f 207/356/11 208/355/11 206/357/11 205/358/11
f 205/358/12 206/357/12 202/359/12 201/360/12
f 203/361/13 207/356/13 205/358/13 201/362/13
f 208/355/14 204/363/14 202/364/14 206/357/14
f 209/365/9 210/366/9 212/367/9 211/368/9
f 211/368/10 212/367/10 216/369/10 215/370/10
f 215/370/11 216/369/11 214/371/11 213/372/11
f 213/372/12 214/371/12 210/373/12 209/374/12
f 211/375/13 215/370/13 213/372/13 209/376/13
f 216/369/14 212/377/14 210/378/14 214/371/14
f 217/379/9 218/380/9 220/381/9 219/382/9
f 219/382/10 220/381/10 224/383/10 223/384/10
f 223/384/11 224/383/11 222/385/11 221/386/11
f 221/386/12 222/385/12 218/387/12 217/388/12
f 219/389/13 223/384/13 221/386/13 217/390/13
f 224/383/14 220/391/14 218/392/14 222/385/14
f 225/393/9 226/394/9 228/395/9 227/396/9
f 227/396/10 228/395/10 232/397/10 231/398/10
f 231/398/11 232/397/11 230/399/11 229/400/11
f 229/400/12 230/399/12 226/401/12 225/402/12
f 227/403/13 231/398/13 229/400/13 225/404/13
f 232/397/14 228/405/14 226/406/14 230/399/14
f 233/407/9 234/408/9 236/409/9 235/410/9
f 235/410/10 236/409/10 240/411/10 239/412/10
f 239/412/11 240/411/11 238/413/11 237/414/11
f 237/414/12 238/413/12 234/415/12 233/416/12
f 235/417/13 239/412/13 237/414/13 233/418/13
f 240/411/14 236/419/14 234/420/14 238/413/14
f 241/421/9 242/422/9 244/423/9 243/424/9
f 243/424/10 244/423/10 248/425/10 247/426/10
f 247/426/11 248/425/11 246/427/11 245/428/11
f 245/428/12 246/427/12 242/429/12 241/430/12
f 243/431/13 247/426/13 245/428/13 241/432/13
f 248/425/14 244/433/14 242/434/14 246/427/14
f 249/435/9 250/436/9 252/437/9 251/438/9
f 251/438/10 252/437/10 256/439/10 255/440/10
f 255/440/11 256/439/11 254/441/11 253/442/11
f 253/442/12 254/441/12 250/443/12 249/444/12
f 251/445/13 255/440/13 253/442/13 249/446/13
f 256/439/14 252/447/14 250/448/14 254/441/14
f 257/449/9 258/450/9 260/451/9 259/452/9
f 259/452/10 260/451/10 264/453/10 263/454/10
f 263/454/11 264/453/11 262/455/11 261/456/11
f 261/456/12 262/455/12 258/457/12 257/458/12
f 259/459/13 263/454/13 261/456/13 257/460/13
f 264/453/14 260/461/14 258/462/14 262/455/14
f 265/463/9 266/464/9 268/465/9 267/466/9
f 267/466/10 268/465/10 272/467/10 271/468/10
f 271/468/11 272/467/11 270/469/11 269/470/11
f 269/470/12 270/469/12 266/471/12 265/472/12
f 267/473/13 271/468/13 269/470/13 265/474/13
f 272/467/14 268/475/14 266/476/14 270/469/14
f 273/477/9 274/478/9 276/479/9 275/480/9
f 275/480/10 276/479/10 280/481/10 279/482/10
f 279/482/11 280/481/11 278/483/11 277/484/11
f 277/484/12 278/483/12 274/485/12 273/486/12
f 275/487/13 279/482/13 277/484/13 273/488/13
f 280/481/14 276/489/14 274/490/14 278/483/14
f 281/491/9 282/492/9 284/493/9 283/494/9
f 283/494/10 284/493/10 288/495/10 287/496/10
f 287/496/11 288/495/11 286/497/11 285/498/11
f 285/498/12 286/497/12 282/499/12 281/500/12
f 283/501/13 287/496/13 285/498/13 281/502/13
f 288/495/14 284/503/14 282/504/14 286/497/14
f 289/505/9 290/506/9 292/507/9 291/508/9
f 291/508/10 292/507/10 296/509/10 295/510/10
f 295/510/11 296/509/11 294/511/11 293/512/11
f 293/512/12 294/511/12 290/513/12 289/514/12
f 291/515/13 295/510/13 293/512/13 289/516/13
f 296/509/14 292/517/14 290/518/14 294/511/14
f 297/519/9 298/520/9 300/521/9 299/522/9
f 299/522/10 300/521/10 304/523/10 303/524/10
f 303/524/11 304/523/11 302/525/11 301/526/11
f 301/526/12 302/525/12 298/527/12 297/528/12
f 299/529/13 303/524/13 301/526/13 297/530/13
f 304/523/14 300/531/14 298/532/14 302/525/14
usemtl Synth_Panel
s 1
f 305/533/1 306/534/2 308/535/3 307/536/4
f 307/536/4 308/535/3 312/537/5 311/538/6
f 311/538/6 312/537/5 310/539/7 309/540/8
f 309/540/8 310/539/7 306/541/2 305/542/1
f 307/543/4 311/538/6 309/540/8 305/544/1
f 312/537/5 308/545/3 306/546/2 310/539/7
usemtl Synth_Knobs
s off
f 313/547/15 314/548/15 316/549/15 315/550/15
f 315/550/16 316/549/16 318/551/16 317/552/16
f 317/552/17 318/551/17 320/553/17 319/554/17
f 319/554/18 320/553/18 322/555/18 321/556/18
f 321/556/19 322/555/19 324/557/19 323/558/19
f 323/558/20 324/557/20 326/559/20 325/560/20
f 325/560/21 326/559/21 328/561/21 327/562/21
f 327/562/22 328/561/22 330/563/22 329/564/22
f 329/564/23 330/563/23 332/565/23 331/566/23
f 331/566/24 332/565/24 334/567/24 333/568/24
f 333/568/25 334/567/25 336/569/25 335/570/25
f 335/570/26 336/569/26 338/571/26 337/572/26
f 337/572/27 338/571/27 340/573/27 339/574/27
f 339/574/28 340/573/28 342/575/28 341/576/28
f 316/577/12 314/578/12 344/579/12 342/580/12 340/581/12 338/582/12 336/583/12 334/584/12 332/585/12 330/586/12 328/587/12 326/588/12 324/589/12 322/590/12 320/591/12 318/592/12
f 341/576/29 342/575/29 344/593/29 343/594/29
f 343/594/30 344/593/30 314/595/30 313/596/30
f 313/597/10 315/598/10 317/599/10 319/600/10 321/601/10 323/602/10 325/603/10 327/604/10 329/605/10 331/606/10 333/607/10 335/608/10 337/609/10 339/610/10 341/611/10 343/612/10
f 345/613/15 346/614/15 348/615/15 347/616/15
f 347/616/16 348/615/16 350/617/16 349/618/16
f 349/618/17 350/617/17 352/619/17 351/620/17
f 351/620/18 352/619/18 354/621/18 353/622/18
f 353/622/19 354/621/19 356/623/19 355/624/19
f 355/624/20 356/623/20 358/625/20 357/626/20
f 357/626/21 358/625/21 360/627/21 359/628/21
f 359/628/22 360/627/22 362/629/22 361/630/22
f 361/630/23 362/629/23 364/631/23 363/632/23
f 363/632/24 364/631/24 366/633/24 365/634/24
f 365/634/25 366/633/25 368/635/25 367/636/25
f 367/636/26 368/635/26 370/637/26 369/638/26
f 369/638/27 370/637/27 372/639/27 371/640/27
f 371/640/28 372/639/28 374/641/28 373/642/28
f 348/643/12 346/644/12 376/645/12 374/646/12 372/647/12 370/648/12 368/649/12 366/650/12 364/651/12 362/652/12 360/653/12 358/654/12 356/655/12 354/656/12 352/657/12 350/658/12
f 373/642/29 374/641/29 376/659/29 375/660/29
f 375/660/30 376/659/30 346/661/30 345/662/30
f 345/663/10 347/664/10 349/665/10 351/666/10 353/667/10 355/668/10 357/669/10 359/670/10 361/671/10 363/672/10 365/673/10 367/674/10 369/675/10 371/676/10 373/677/10 375/678/10
f 377/679/15 378/680/15 380/681/15 379/682/15
f 379/682/16 380/681/16 382/683/16 381/684/16
f 381/684/17 382/683/17 384/685/17 383/686/17
f 383/686/18 384/685/18 386/687/18 385/688/18
f 385/688/19 386/687/19 388/689/19 387/690/19
f 387/690/20 388/689/20 390/691/20 389/692/20
f 389/692/21 390/691/21 392/693/21 391/694/21
f 391/694/22 392/693/22 394/695/22 393/696/22
f 393/696/23 394/695/23 396/697/23 395/698/23
f 395/698/24 396/697/24 398/699/24 397/700/24
f 397/700/25 398/699/25 400/701/25 399/702/25
f 399/702/26 400/701/26 402/703/26 401/704/26
f 401/704/27 402/703/27 404/705/27 403/706/27
f 403/706/28 404/705/28 406/707/28 405/708/28
f 380/709/12 378/710/12 408/711/12 406/712/12 404/713/12 402/714/12 400/715/12 398/716/12 396/717/12 394/718/12 392/719/12 390/720/12 388/721/12 386/722/12 384/723/12 382/724/12
f 405/708/29 406/707/29 408/725/29 407/726/29
f 407/726/30 408/725/30 378/727/30 377/728/30
f 377/729/10 379/730/10 381/731/10 383/732/10 385/733/10 387/734/10 389/735/10 391/736/10 393/737/10 395/738/10 397/739/10 399/740/10 401/741/10 403/742/10 405/743/10 407/744/10
f 409/745/15 410/746/15 412/747/15 411/748/15
f 411/748/16 412/747/16 414/749/16 413/750/16
f 413/750/17 414/749/17 416/751/17 415/752/17
f 415/752/18 416/751/18 418/753/18 417/754/18
f 417/754/19 418/753/19 420/755/19 419/756/19
f 419/756/20 420/755/20 422/757/20 421/758/20
f 421/758/21 422/757/21 424/759/21 423/760/21
f 423/760/22 424/759/22 426/761/22 425/762/22
f 425/762/23 426/761/23 428/763/23 427/764/23
f 427/764/24 428/763/24 430/765/24 429/766/24
f 429/766/25 430/765/25 432/767/25 431/768/25
f 431/768/26 432/767/26 434/769/26 433/770/26
f 433/770/27 434/769/27 436/771/27 435/772/27
f 435/772/28 436/771/28 438/773/28 437/774/28
f 412/775/12 410/776/12 440/777/12 438/778/12 436/779/12 434/780/12 432/781/12 430/782/12 428/783/12 426/784/12 424/785/12 422/786/12 420/787/12 418/788/12 416/789/12 414/790/12
f 437/774/29 438/773/29 440/791/29 439/792/29
f 439/792/30 440/791/30 410/793/30 409/794/30
f 409/795/10 411/796/10 413/797/10 415/798/10 417/799/10 419/800/10 421/801/10 423/802/10 425/803/10 427/804/10 429/805/10 431/806/10 433/807/10 435/808/10 437/809/10 439/810/10
f 441/811/15 442/812/15 444/813/15 443/814/15
f 443/814/16 444/813/16 446/815/16 445/816/16
f 445/816/17 446/815/17 448/817/17 447/818/17
f 447/818/18 448/817/18 450/819/18 449/820/18
f 449/820/19 450/819/19 452/821/19 451/822/19
f 451/822/20 452/821/20 454/823/20 453/824/20
f 453/824/21 454/823/21 456/825/21 455/826/21
f 455/826/22 456/825/22 458/827/22 457/828/22
f 457/828/23 458/827/23 460/829/23 459/830/23
f 459/830/24 460/829/24 462/831/24 461/832/24
f 461/832/25 462/831/25 464/833/25 463/834/25
f 463/834/26 464/833/26 466/835/26 465/836/26
f 465/836/27 466/835/27 468/837/27 467/838/27
f 467/838/28 468/837/28 470/839/28 469/840/28
f 444/841/12 442/842/12 472/843/12 470/844/12 468/845/12 466/846/12 464/847/12 462/848/12 460/849/12 458/850/12 456/851/12 454/852/12 452/853/12 450/854/12 448/855/12 446/856/12
f 469/840/29 470/839/29 472/857/29 471/858/29
f 471/858/30 472/857/30 442/859/30 441/860/30
f 441/861/10 443/862/10 445/863/10 447/864/10 449/865/10 451/866/10 453/867/10 455/868/10 457/869/10 459/870/10 461/871/10 463/872/10 465/873/10 467/874/10 469/875/10 471/876/10
f 473/877/15 474/878/15 476/879/15 475/880/15
f 475/880/16 476/879/16 478/881/16 477/882/16
f 477/882/17 478/881/17 480/883/17 479/884/17
f 479/884/18 480/883/18 482/885/18 481/886/18
f 481/886/19 482/885/19 484/887/19 483/888/19
f 483/888/20 484/887/20 486/889/20 485/890/20
f 485/890/21 486/889/21 488/891/21 487/892/21
f 487/892/22 488/891/22 490/893/22 489/894/22
f 489/894/23 490/893/23 492/895/23 491/896/23
f 491/896/24 492/895/24 494/897/24 493/898/24
f 493/898/25 494/897/25 496/899/25 495/900/25
f 495/900/26 496/899/26 498/901/26 497/902/26
f 497/902/27 498/901/27 500/903/27 499/904/27
f 499/904/28 500/903/28 502/905/28 501/906/28
f 476/907/12 474/908/12 504/909/12 502/910/12 500/911/12 498/912/12 496/913/12 494/914/12 492/915/12 490/916/12 488/917/12 486/918/12 484/919/12 482/920/12 480/921/12 478/922/12
f 501/906/29 502/905/29 504/923/29 503/924/29
f 503/924/30 504/923/30 474/925/30 473/926/30
f 473/927/10 475/928/10 477/929/10 479/930/10 481/931/10 483/932/10 485/933/10 487/934/10 489/935/10 491/936/10 493/937/10 495/938/10 497/939/10 499/940/10 501/941/10 503/942/10
f 505/943/15 506/944/15 508/945/15 507/946/15
f 507/946/16 508/945/16 510/947/16 509/948/16
f 509/948/17 510/947/17 512/949/17 511/950/17
f 511/950/18 512/949/18 514/951/18 513/952/18
f 513/952/19 514/951/19 516/953/19 515/954/19
f 515/954/20 516/953/20 518/955/20 517/956/20
f 517/956/21 518/955/21 520/957/21 519/958/21
f 519/958/22 520/957/22 522/959/22 521/960/22
f 521/960/23 522/959/23 524/961/23 523/962/23
f 523/962/24 524/961/24 526/963/24 525/964/24
f 525/964/25 526/963/25 528/965/25 527/966/25
f 527/966/26 528/965/26 530/967/26 529/968/26
f 529/968/27 530/967/27 532/969/27 531/970/27
f 531/970/28 532/969/28 534/971/28 533/972/28
f 508/973/12 506/974/12 536/975/12 534/976/12 532/977/12 530/978/12 528/979/12 526/980/12 524/981/12 522/982/12 520/983/12 518/984/12 516/985/12 514/986/12 512/987/12 510/988/12
f 533/972/29 534/971/29 536/989/29 535/990/29
f 535/990/30 536/989/30 506/991/30 505/992/30
f 505/993/10 507/994/10 509/995/10 511/996/10 513/997/10 515/998/10 517/999/10 519/1000/10 521/1001/10 523/1002/10 525/1003/10 527/1004/10 529/1005/10 531/1006/10 533/1007/10 535/1008/10
f 537/1009/15 538/1010/15 540/1011/15 539/1012/15
f 539/1012/16 540/1011/16 542/1013/16 541/1014/16
f 541/1014/17 542/1013/17 544/1015/17 543/1016/17
f 543/1016/18 544/1015/18 546/1017/18 545/1018/18
f 545/1018/19 546/1017/19 548/1019/19 547/1020/19
f 547/1020/20 548/1019/20 550/1021/20 549/1022/20
f 549/1022/21 550/1021/21 552/1023/21 551/1024/21
f 551/1024/22 552/1023/22 554/1025/22 553/1026/22
f 553/1026/23 554/1025/23 556/1027/23 555/1028/23
f 555/1028/24 556/1027/24 558/1029/24 557/1030/24
f 557/1030/25 558/1029/25 560/1031/25 559/1032/25
f 559/1032/26 560/1031/26 562/1033/26 561/1034/26
f 561/1034/27 562/1033/27 564/1035/27 563/1036/27
f 563/1036/28 564/1035/28 566/1037/28 565/1038/28
f 540/1039/12 538/1040/12 568/1041/12 566/1042/12 564/1043/12 562/1044/12 560/1045/12 558/1046/12 556/1047/12 554/1048/12 552/1049/12 550/1050/12 548/1051/12 546/1052/12 544/1053/12 542/1054/12
f 565/1038/29 566/1037/29 568/1055/29 567/1056/29
f 567/1056/30 568/1055/30 538/1057/30 537/1058/30
f 537/1059/10 539/1060/10 541/1061/10 543/1062/10 545/1063/10 547/1064/10 549/1065/10 551/1066/10 553/1067/10 555/1068/10 557/1069/10 559/1070/10 561/1071/10 563/1072/10 565/1073/10 567/1074/10
f 569/1075/15 570/1076/15 572/1077/15 571/1078/15
f 571/1078/16 572/1077/16 574/1079/16 573/1080/16
f 573/1080/17 574/1079/17 576/1081/17 575/1082/17
f 575/1082/18 576/1081/18 578/1083/18 577/1084/18
f 577/1084/19 578/1083/19 580/1085/19 579/1086/19
f 579/1086/20 580/1085/20 582/1087/20 581/1088/20
f 581/1088/21 582/1087/21 584/1089/21 583/1090/21
f 583/1090/22 584/1089/22 586/1091/22 585/1092/22
f 585/1092/23 586/1091/23 588/1093/23 587/1094/23
f 587/1094/24 588/1093/24 590/1095/24 589/1096/24
f 589/1096/25 590/1095/25 592/1097/25 591/1098/25
f 591/1098/26 592/1097/26 594/1099/26 593/1100/26
f 593/1100/27 594/1099/27 596/1101/27 595/1102/27
f 595/1102/28 596/1101/28 598/1103/28 597/1104/28
f 572/1105/12 570/1106/12 600/1107/12 598/1108/12 596/1109/12 594/1110/12 592/1111/12 590/1112/12 588/1113/12 586/1114/12 584/1115/12 582/1116/12 580/1117/12 578/1118/12 576/1119/12 574/1120/12
f 597/1104/29 598/1103/29 600/1121/29 599/1122/29
f 599/1122/30 600/1121/30 570/1123/30 569/1124/30
f 569/1125/10 571/1126/10 573/1127/10 575/1128/10 577/1129/10 579/1130/10 581/1131/10 583/1132/10 585/1133/10 587/1134/10 589/1135/10 591/1136/10 593/1137/10 595/1138/10 597/1139/10 599/1140/10
f 601/1141/15 602/1142/15 604/1143/15 603/1144/15
f 603/1144/16 604/1143/16 606/1145/16 605/1146/16
f 605/1146/17 606/1145/17 608/1147/17 607/1148/17
f 607/1148/18 608/1147/18 610/1149/18 609/1150/18
f 609/1150/19 610/1149/19 612/1151/19 611/1152/19
f 611/1152/20 612/1151/20 614/1153/20 613/1154/20
f 613/1154/21 614/1153/21 616/1155/21 615/1156/21
f 615/1156/22 616/1155/22 618/1157/22 617/1158/22
f 617/1158/23 618/1157/23 620/1159/23 619/1160/23
f 619/1160/24 620/1159/24 622/1161/24 621/1162/24
f 621/1162/25 622/1161/25 624/1163/25 623/1164/25
f 623/1164/26 624/1163/26 626/1165/26 625/1166/26
f 625/1166/27 626/1165/27 628/1167/27 627/1168/27
f 627/1168/28 628/1167/28 630/1169/28 629/1170/28
f 604/1171/12 602/1172/12 632/1173/12 630/1174/12 628/1175/12 626/1176/12 624/1177/12 622/1178/12 620/1179/12 618/1180/12 616/1181/12 614/1182/12 612/1183/12 610/1184/12 608/1185/12 606/1186/12
f 629/1170/29 630/1169/29 632/1187/29 631/1188/29
f 631/1188/30 632/1187/30 602/1189/30 601/1190/30
f 601/1191/10 603/1192/10 605/1193/10 607/1194/10 609/1195/10 611/1196/10 613/1197/10 615/1198/10 617/1199/10 619/1200/10 621/1201/10 623/1202/10 625/1203/10 627/1204/10 629/1205/10 631/1206/10
f 633/1207/15 634/1208/15 636/1209/15 635/1210/15
f 635/1210/16 636/1209/16 638/1211/16 637/1212/16
f 637/1212/17 638/1211/17 640/1213/17 639/1214/17
f 639/1214/18 640/1213/18 642/1215/18 641/1216/18
f 641/1216/19 642/1215/19 644/1217/19 643/1218/19
f 643/1218/20 644/1217/20 646/1219/20 645/1220/20
f 645/1220/21 646/1219/21 648/1221/21 647/1222/21
f 647/1222/22 648/1221/22 650/1223/22 649/1224/22
f 649/1224/23 650/1223/23 652/1225/23 651/1226/23
f 651/1226/24 652/1225/24 654/1227/24 653/1228/24
f 653/1228/25 654/1227/25 656/1229/25 655/1230/25
f 655/1230/26 656/1229/26 658/1231/26 657/1232/26
f 657/1232/27 658/1231/27 660/1233/27 659/1234/27
f 659/1234/28 660/1233/28 662/1235/28 661/1236/28
f 636/1237/12 634/1238/12 664/1239/12 662/1240/12 660/1241/12 658/1242/12 656/1243/12 654/1244/12 652/1245/12 650/1246/12 648/1247/12 646/1248/12 644/1249/12 642/1250/12 640/1251/12 638/1252/12
f 661/1236/29 662/1235/29 664/1253/29 663/1254/29
f 663/1254/30 664/1253/30 634/1255/30 633/1256/30
f 633/1257/10 635/1258/10 637/1259/10 639/1260/10 641/1261/10 643/1262/10 645/1263/10 647/1264/10 649/1265/10 651/1266/10 653/1267/10 655/1268/10 657/1269/10 659/1270/10 661/1271/10 663/1272/10
f 665/1273/15 666/1274/15 668/1275/15 667/1276/15
f 667/1276/16 668/1275/16 670/1277/16 669/1278/16
f 669/1278/17 670/1277/17 672/1279/17 671/1280/17
f 671/1280/18 672/1279/18 674/1281/18 673/1282/18
f 673/1282/19 674/1281/19 676/1283/19 675/1284/19
f 675/1284/20 676/1283/20 678/1285/20 677/1286/20
f 677/1286/21 678/1285/21 680/1287/21 679/1288/21
f 679/1288/22 680/1287/22 682/1289/22 681/1290/22
f 681/1290/23 682/1289/23 684/1291/23 683/1292/23
f 683/1292/24 684/1291/24 686/1293/24 685/1294/24
f 685/1294/25 686/1293/25 688/1295/25 687/1296/25
f 687/1296/26 688/1295/26 690/1297/26 689/1298/26
f 689/1298/27 690/1297/27 692/1299/27 691/1300/27
f 691/1300/28 692/1299/28 694/1301/28 693/1302/28
f 668/1303/12 666/1304/12 696/1305/12 694/1306/12 692/1307/12 690/1308/12 688/1309/12 686/1310/12 684/1311/12 682/1312/12 680/1313/12 678/1314/12 676/1315/12 674/1316/12 672/1317/12 670/1318/12
f 693/1302/29 694/1301/29 696/1319/29 695/1320/29
f 695/1320/30 696/1319/30 666/1321/30 665/1322/30
f 665/1323/10 667/1324/10 669/1325/10 671/1326/10 673/1327/10 675/1328/10 677/1329/10 679/1330/10 681/1331/10 683/1332/10 685/1333/10 687/1334/10 689/1335/10 691/1336/10 693/1337/10 695/1338/10
f 697/1339/15 698/1340/15 700/1341/15 699/1342/15
f 699/1342/16 700/1341/16 702/1343/16 701/1344/16
f 701/1344/17 702/1343/17 704/1345/17 703/1346/17
f 703/1346/18 704/1345/18 706/1347/18 705/1348/18
f 705/1348/19 706/1347/19 708/1349/19 707/1350/19
f 707/1350/20 708/1349/20 710/1351/20 709/1352/20
f 709/1352/21 710/1351/21 712/1353/21 711/1354/21
f 711/1354/22 712/1353/22 714/1355/22 713/1356/22
f 713/1356/23 714/1355/23 716/1357/23 715/1358/23
f 715/1358/24 716/1357/24 718/1359/24 717/1360/24
f 717/1360/25 718/1359/25 720/1361/25 719/1362/25
f 719/1362/26 720/1361/26 722/1363/26 721/1364/26
f 721/1364/27 722/1363/27 724/1365/27 723/1366/27
f 723/1366/28 724/1365/28 726/1367/28 725/1368/28
f 700/1369/12 698/1370/12 728/1371/12 726/1372/12 724/1373/12 722/1374/12 720/1375/12 718/1376/12 716/1377/12 714/1378/12 712/1379/12 710/1380/12 708/1381/12 706/1382/12 704/1383/12 702/1384/12
f 725/1368/29 726/1367/29 728/1385/29 727/1386/29
f 727/1386/30 728/1385/30 698/1387/30 697/1388/30
f 697/1389/10 699/1390/10 701/1391/10 703/1392/10 705/1393/10 707/1394/10 709/1395/10 711/1396/10 713/1397/10 715/1398/10 717/1399/10 719/1400/10 721/1401/10 723/1402/10 725/1403/10 727/1404/10
f 729/1405/15 730/1406/15 732/1407/15 731/1408/15
f 731/1408/16 732/1407/16 734/1409/16 733/1410/16
f 733/1410/17 734/1409/17 736/1411/17 735/1412/17
f 735/1412/18 736/1411/18 738/1413/18 737/1414/18
f 737/1414/19 738/1413/19 740/1415/19 739/1416/19
f 739/1416/20 740/1415/20 742/1417/20 741/1418/20
f 741/1418/21 742/1417/21 744/1419/21 743/1420/21
f 743/1420/22 744/1419/22 746/1421/22 745/1422/22
f 745/1422/23 746/1421/23 748/1423/23 747/1424/23
f 747/1424/24 748/1423/24 750/1425/24 749/1426/24
f 749/1426/25 750/1425/25 752/1427/25 751/1428/25
f 751/1428/26 752/1427/26 754/1429/26 753/1430/26
f 753/1430/27 754/1429/27 756/1431/27 755/1432/27
f 755/1432/28 756/1431/28 758/1433/28 757/1434/28
f 732/1435/12 730/1436/12 760/1437/12 758/1438/12 756/1439/12 754/1440/12 752/1441/12 750/1442/12 748/1443/12 746/1444/12 744/1445/12 742/1446/12 740/1447/12 738/1448/12 736/1449/12 734/1450/12
f 757/1434/29 758/1433/29 760/1451/29 759/1452/29
f 759/1452/30 760/1451/30 730/1453/30 729/1454/30
f 729/1455/10 731/1456/10 733/1457/10 735/1458/10 737/1459/10 739/1460/10 741/1461/10 743/1462/10 745/1463/10 747/1464/10 749/1465/10 751/1466/10 753/1467/10 755/1468/10 757/1469/10 759/1470/10
f 761/1471/15 762/1472/15 764/1473/15 763/1474/15
f 763/1474/16 764/1473/16 766/1475/16 765/1476/16
f 765/1476/17 766/1475/17 768/1477/17 767/1478/17
f 767/1478/18 768/1477/18 770/1479/18 769/1480/18
f 769/1480/19 770/1479/19 772/1481/19 771/1482/19
f 771/1482/20 772/1481/20 774/1483/20 773/1484/20
f 773/1484/21 774/1483/21 776/1485/21 775/1486/21
f 775/1486/22 776/1485/22 778/1487/22 777/1488/22
f 777/1488/23 778/1487/23 780/1489/23 779/1490/23
f 779/1490/24 780/1489/24 782/1491/24 781/1492/24
f 781/1492/25 782/1491/25 784/1493/25 783/1494/25
f 783/1494/26 784/1493/26 786/1495/26 785/1496/26
f 785/1496/27 786/1495/27 788/1497/27 787/1498/27
f 787/1498/28 788/1497/28 790/1499/28 789/1500/28
f 764/1501/12 762/1502/12 792/1503/12 790/1504/12 788/1505/12 786/1506/12 784/1507/12 782/1508/12 780/1509/12 778/1510/12 776/1511/12 774/1512/12 772/1513/12 770/1514/12 768/1515/12 766/1516/12
f 789/1500/29 790/1499/29 792/1517/29 791/1518/29
f 791/1518/30 792/1517/30 762/1519/30 761/1520/30
f 761/1521/10 763/1522/10 765/1523/10 767/1524/10 769/1525/10 771/1526/10 773/1527/10 775/1528/10 777/1529/10 779/1530/10 781/1531/10 783/1532/10 785/1533/10 787/1534/10 789/1535/10 791/1536/10
f 793/1537/15 794/1538/15 796/1539/15 795/1540/15
f 795/1540/16 796/1539/16 798/1541/16 797/1542/16
f 797/1542/17 798/1541/17 800/1543/17 799/1544/17
f 799/1544/18 800/1543/18 802/1545/18 801/1546/18
f 801/1546/19 802/1545/19 804/1547/19 803/1548/19
f 803/1548/20 804/1547/20 806/1549/20 805/1550/20
f 805/1550/21 806/1549/21 808/1551/21 807/1552/21
f 807/1552/22 808/1551/22 810/1553/22 809/1554/22
f 809/1554/23 810/1553/23 812/1555/23 811/1556/23
f 811/1556/24 812/1555/24 814/1557/24 813/1558/24
f 813/1558/25 814/1557/25 816/1559/25 815/1560/25
f 815/1560/26 816/1559/26 818/1561/26 817/1562/26
f 817/1562/27 818/1561/27 820/1563/27 819/1564/27
f 819/1564/28 820/1563/28 822/1565/28 821/1566/28
f 796/1567/12 794/1568/12 824/1569/12 822/1570/12 820/1571/12 818/1572/12 816/1573/12 814/1574/12 812/1575/12 810/1576/12 808/1577/12 806/1578/12 804/1579/12 802/1580/12 800/1581/12 798/1582/12
f 821/1566/29 822/1565/29 824/1583/29 823/1584/29
f 823/1584/30 824/1583/30 794/1585/30 793/1586/30
f 793/1587/10 795/1588/10 797/1589/10 799/1590/10 801/1591/10 803/1592/10 805/1593/10 807/1594/10 809/1595/10 811/1596/10 813/1597/10 815/1598/10 817/1599/10 819/1600/10 821/1601/10 823/1602/10
usemtl Synth_Screen
s 1
f 825/1603/1 826/1604/2 828/1605/3 827/1606/4
f 827/1606/4 828/1605/3 832/1607/5 831/1608/6
f 831/1608/6 832/1607/5 830/1609/7 829/1610/8
f 829/1610/8 830/1609/7 826/1611/2 825/1612/1
f 827/1613/4 831/1608/6 829/1610/8 825/1614/1
f 832/1607/5 828/1615/3 826/1616/2 830/1609/7
